<?xml version="1.0" encoding="UTF-8"?>
<svg stroke-dasharray="none" shape-rendering="auto"
    font-family="'Dialog'" width="801" text-rendering="auto"
    fill-opacity="1" color-interpolation="auto" color-rendering="auto"
    font-size="12" fill="black" stroke="black" image-rendering="auto"
    stroke-miterlimit="10" stroke-linecap="square"
    stroke-linejoin="miter" font-style="normal" height="1149"
    stroke-width="1" stroke-dashoffset="0" font-weight="normal" stroke-opacity="1">
    <!--Generated by the Batik Graphics2D SVG Generator-->
    <defs id="genericDefs"/>
    <g>
        <defs id="defs1">
            <clipPath clipPathUnits="userSpaceOnUse" id="clipPath1">
                <path d="M-1 -1 L801 -1 L801 1149 L-1 1149 L-1 -1 Z"/>
            </clipPath>
            <clipPath clipPathUnits="userSpaceOnUse" id="clipPath2">
                <path d="M5 6 L23 6 L23 21 L5 21 L5 6 Z"/>
            </clipPath>
            <clipPath clipPathUnits="userSpaceOnUse" id="clipPath3">
                <path d="M23 5 L72 5 L72 23 L23 23 L23 5 Z"/>
            </clipPath>
            <clipPath clipPathUnits="userSpaceOnUse" id="clipPath4">
                <path d="M120 69 L222 69 L222 600 L120 600 L120 69 Z"/>
            </clipPath>
            <clipPath clipPathUnits="userSpaceOnUse" id="clipPath5">
                <path d="M120 69 L222 69 L222 100 L120 100 L120 69 Z"/>
            </clipPath>
            <clipPath clipPathUnits="userSpaceOnUse" id="clipPath6">
                <path d="M130 75 L200 75 L200 93 L130 93 L130 75 Z"/>
            </clipPath>
            <clipPath clipPathUnits="userSpaceOnUse" id="clipPath7">
                <path d="M200 75 L211 75 L211 93 L200 93 L200 75 Z"/>
            </clipPath>
            <clipPath clipPathUnits="userSpaceOnUse" id="clipPath8">
                <path d="M130 75 L211 75 L211 94 L130 94 L130 75 Z"/>
            </clipPath>
            <clipPath clipPathUnits="userSpaceOnUse" id="clipPath9">
                <path d="M160 121 L182 121 L182 482 L160 482 L160 121 Z"/>
            </clipPath>
            <clipPath clipPathUnits="userSpaceOnUse" id="clipPath10">
                <path d="M173 165 L195 165 L195 481 L173 481 L173 165 Z"/>
            </clipPath>
            <clipPath clipPathUnits="userSpaceOnUse" id="clipPath11">
                <path d="M186 427 L208 427 L208 479 L186 479 L186 427 Z"/>
            </clipPath>
            <clipPath clipPathUnits="userSpaceOnUse" id="clipPath12">
                <path d="M304 69 L426 69 L426 600 L304 600 L304 69 Z"/>
            </clipPath>
            <clipPath clipPathUnits="userSpaceOnUse" id="clipPath13">
                <path d="M304 69 L426 69 L426 100 L304 100 L304 69 Z"/>
            </clipPath>
            <clipPath clipPathUnits="userSpaceOnUse" id="clipPath14">
                <path d="M312 75 L406 75 L406 93 L312 93 L312 75 Z"/>
            </clipPath>
            <clipPath clipPathUnits="userSpaceOnUse" id="clipPath15">
                <path d="M406 75 L417 75 L417 93 L406 93 L406 75 Z"/>
            </clipPath>
            <clipPath clipPathUnits="userSpaceOnUse" id="clipPath16">
                <path d="M312 75 L417 75 L417 94 L312 94 L312 75 Z"/>
            </clipPath>
            <clipPath clipPathUnits="userSpaceOnUse" id="clipPath17">
                <path d="M354 186 L376 186 L376 212 L354 212 L354 186 Z"/>
            </clipPath>
            <clipPath clipPathUnits="userSpaceOnUse" id="clipPath18">
                <path d="M354 226 L376 226 L376 252 L354 252 L354 226 Z"/>
            </clipPath>
            <clipPath clipPathUnits="userSpaceOnUse" id="clipPath19">
                <path d="M354 256 L376 256 L376 290 L354 290 L354 256 Z"/>
            </clipPath>
            <clipPath clipPathUnits="userSpaceOnUse" id="clipPath20">
                <path d="M354 295 L376 295 L376 337 L354 337 L354 295 Z"/>
            </clipPath>
            <clipPath clipPathUnits="userSpaceOnUse" id="clipPath21">
                <path d="M354 347 L376 347 L376 389 L354 389 L354 347 Z"/>
            </clipPath>
            <clipPath clipPathUnits="userSpaceOnUse" id="clipPath22">
                <path d="M9 99 L176 99 L176 152 L9 152 L9 99 Z"/>
            </clipPath>
            <clipPath clipPathUnits="userSpaceOnUse" id="clipPath23">
                <path d="M60 112 L129 112 L129 130 L60 130 L60 112 Z"/>
            </clipPath>
            <clipPath clipPathUnits="userSpaceOnUse" id="clipPath24">
                <path d="M22 125 L35 125 L35 138 L22 138 L22 125 Z"/>
            </clipPath>
            <clipPath clipPathUnits="userSpaceOnUse" id="clipPath25">
                <path d="M150 126 L163 126 L163 139 L150 139 L150 126 Z"/>
            </clipPath>
            <clipPath clipPathUnits="userSpaceOnUse" id="clipPath26">
                <path d="M167 119 L258 119 L258 196 L167 196 L167 119 Z"/>
            </clipPath>
            <clipPath clipPathUnits="userSpaceOnUse" id="clipPath27">
                <path d="M219 135 L245 135 L245 153 L219 153 L219 135 Z"/>
            </clipPath>
            <clipPath clipPathUnits="userSpaceOnUse" id="clipPath28">
                <path d="M193 170 L206 170 L206 183 L193 183 L193 170 Z"/>
            </clipPath>
            <clipPath clipPathUnits="userSpaceOnUse" id="clipPath29">
                <path d="M177 164 L370 164 L370 217 L177 217 L177 164 Z"/>
            </clipPath>
            <clipPath clipPathUnits="userSpaceOnUse" id="clipPath30">
                <path d="M230 177 L320 177 L320 195 L230 195 L230 177 Z"/>
            </clipPath>
            <clipPath clipPathUnits="userSpaceOnUse" id="clipPath31">
                <path d="M190 190 L203 190 L203 203 L190 203 L190 190 Z"/>
            </clipPath>
            <clipPath clipPathUnits="userSpaceOnUse" id="clipPath32">
                <path d="M344 191 L357 191 L357 204 L344 204 L344 191 Z"/>
            </clipPath>
            <clipPath clipPathUnits="userSpaceOnUse" id="clipPath33">
                <path d="M180 204 L370 204 L370 257 L180 257 L180 204 Z"/>
            </clipPath>
            <clipPath clipPathUnits="userSpaceOnUse" id="clipPath34">
                <path d="M231 217 L324 217 L324 235 L231 235 L231 217 Z"/>
            </clipPath>
            <clipPath clipPathUnits="userSpaceOnUse" id="clipPath35">
                <path d="M193 230 L206 230 L206 243 L193 243 L193 230 Z"/>
            </clipPath>
            <clipPath clipPathUnits="userSpaceOnUse" id="clipPath36">
                <path d="M344 231 L357 231 L357 244 L344 244 L344 231 Z"/>
            </clipPath>
            <clipPath clipPathUnits="userSpaceOnUse" id="clipPath37">
                <path d="M180 374 L343 374 L343 464 L180 464 L180 374 Z"/>
            </clipPath>
            <clipPath clipPathUnits="userSpaceOnUse" id="clipPath38">
                <path d="M264 407 L330 407 L330 425 L264 425 L264 407 Z"/>
            </clipPath>
            <clipPath clipPathUnits="userSpaceOnUse" id="clipPath39">
                <path d="M206 438 L219 438 L219 451 L206 451 L206 438 Z"/>
            </clipPath>
            <clipPath clipPathUnits="userSpaceOnUse" id="clipPath40">
                <path d="M181 234 L370 234 L370 287 L181 287 L181 234 Z"/>
            </clipPath>
            <clipPath clipPathUnits="userSpaceOnUse" id="clipPath41">
                <path d="M216 247 L338 247 L338 265 L216 265 L216 247 Z"/>
            </clipPath>
            <clipPath clipPathUnits="userSpaceOnUse" id="clipPath42">
                <path d="M194 260 L207 260 L207 273 L194 273 L194 260 Z"/>
            </clipPath>
            <clipPath clipPathUnits="userSpaceOnUse" id="clipPath43">
                <path d="M344 261 L357 261 L357 274 L344 274 L344 261 Z"/>
            </clipPath>
            <clipPath clipPathUnits="userSpaceOnUse" id="clipPath44">
                <path d="M180 273 L370 273 L370 326 L180 326 L180 273 Z"/>
            </clipPath>
            <clipPath clipPathUnits="userSpaceOnUse" id="clipPath45">
                <path d="M235 286 L320 286 L320 304 L235 304 L235 286 Z"/>
            </clipPath>
            <clipPath clipPathUnits="userSpaceOnUse" id="clipPath46">
                <path d="M193 299 L206 299 L206 312 L193 312 L193 299 Z"/>
            </clipPath>
            <clipPath clipPathUnits="userSpaceOnUse" id="clipPath47">
                <path d="M344 300 L357 300 L357 313 L344 313 L344 300 Z"/>
            </clipPath>
            <clipPath clipPathUnits="userSpaceOnUse" id="clipPath48">
                <path d="M180 325 L370 325 L370 378 L180 378 L180 325 Z"/>
            </clipPath>
            <clipPath clipPathUnits="userSpaceOnUse" id="clipPath49">
                <path d="M235 338 L320 338 L320 356 L235 356 L235 338 Z"/>
            </clipPath>
            <clipPath clipPathUnits="userSpaceOnUse" id="clipPath50">
                <path d="M193 351 L206 351 L206 364 L193 364 L193 351 Z"/>
            </clipPath>
            <clipPath clipPathUnits="userSpaceOnUse" id="clipPath51">
                <path d="M344 352 L357 352 L357 365 L344 365 L344 352 Z"/>
            </clipPath>
        </defs>
        <g font-size="11" fill="white" font-family="'Tahoma'"
            stroke-linejoin="round" stroke="white" stroke-width="0" stroke-miterlimit="0">
            <rect x="0" y="0" clip-path="url(#clipPath1)" width="800"
                height="1148" stroke="none"/>
        </g>
        <g stroke-width="0.1" font-size="11" font-family="'Tahoma'" stroke-linecap="butt">
            <line clip-path="url(#clipPath1)" fill="none" x1="1" x2="76"
                y1="30" y2="30"/>
            <line clip-path="url(#clipPath1)" fill="none" x1="76"
                x2="83" y1="30" y2="16"/>
            <line clip-path="url(#clipPath1)" fill="none" x1="83"
                x2="83" y1="16" y2="1"/>
            <text x="6" y="18" clip-path="url(#clipPath2)" stroke="none"
                font-weight="bold" xml:space="preserve">sd </text>
            <text font-size="13" x="24" y="20"
                clip-path="url(#clipPath3)" font-family="'Dialog'"
                stroke="none" xml:space="preserve">initialize</text>
            <line clip-path="url(#clipPath4)" fill="none" x1="171"
                x2="171" y1="99" y2="599" stroke-dasharray="10,2"/>
            <rect x="121" y="70" clip-path="url(#clipPath5)"
                fill="rgb(200,230,255)" width="100"
                stroke-dasharray="10,2" height="29" stroke="none"/>
            <text font-size="13" x="131" y="90"
                clip-path="url(#clipPath6)" font-family="'Dialog'"
                stroke-dasharray="10,2" stroke="none" xml:space="preserve">trafficStatus</text>
            <text font-size="13" x="201" y="90"
                clip-path="url(#clipPath7)" font-family="'Dialog'"
                stroke-dasharray="10,2" stroke="none" xml:space="preserve"> : </text>
            <line clip-path="url(#clipPath8)" fill="none" x1="131"
                x2="210" y1="92" y2="92" stroke-width="1.1"/>
            <rect x="121" y="70" clip-path="url(#clipPath5)" fill="none"
                width="99" height="28" stroke-width="1.1"/>
            <rect x="161" y="122" clip-path="url(#clipPath9)"
                fill="rgb(200,255,200)" width="20" height="359"
                stroke="none" stroke-width="1.1"/>
            <rect x="161" y="122" clip-path="url(#clipPath9)"
                fill="none" width="19" height="358" stroke-width="1.1"/>
            <rect x="174" y="166" clip-path="url(#clipPath10)"
                fill="rgb(200,255,200)" width="20" height="314"
                stroke="none" stroke-width="1.1"/>
            <rect x="174" y="166" clip-path="url(#clipPath10)"
                fill="none" width="19" height="313" stroke-width="1.1"/>
            <rect x="187" y="428" clip-path="url(#clipPath11)"
                fill="rgb(200,255,200)" width="20" height="50"
                stroke="none" stroke-width="1.1"/>
            <rect x="187" y="428" clip-path="url(#clipPath11)"
                fill="none" width="19" height="49" stroke-width="1.1"/>
            <line clip-path="url(#clipPath12)" fill="none" x1="365"
                x2="365" y1="99" y2="599" stroke-dasharray="10,2"/>
            <rect x="305" y="70" clip-path="url(#clipPath13)"
                fill="rgb(200,230,255)" width="120"
                stroke-dasharray="10,2" height="29" stroke="none"/>
            <text font-size="13" x="313" y="90"
                clip-path="url(#clipPath14)" font-family="'Dialog'"
                stroke-dasharray="10,2" stroke="none" xml:space="preserve">persistencyMgr</text>
            <text font-size="13" x="407" y="90"
                clip-path="url(#clipPath15)" font-family="'Dialog'"
                stroke-dasharray="10,2" stroke="none" xml:space="preserve"> : </text>
            <line clip-path="url(#clipPath16)" fill="none" x1="313"
                x2="416" y1="92" y2="92" stroke-width="1.1"/>
            <rect x="305" y="70" clip-path="url(#clipPath13)"
                fill="none" width="119" height="28" stroke-width="1.1"/>
            <rect x="355" y="187" clip-path="url(#clipPath17)"
                fill="rgb(200,255,200)" width="20" height="24"
                stroke="none" stroke-width="1.1"/>
            <rect x="355" y="187" clip-path="url(#clipPath17)"
                fill="none" width="19" height="23" stroke-width="1.1"/>
            <rect x="355" y="227" clip-path="url(#clipPath18)"
                fill="rgb(200,255,200)" width="20" height="24"
                stroke="none" stroke-width="1.1"/>
            <rect x="355" y="227" clip-path="url(#clipPath18)"
                fill="none" width="19" height="23" stroke-width="1.1"/>
            <rect x="355" y="257" clip-path="url(#clipPath19)"
                fill="rgb(200,255,200)" width="20" height="32"
                stroke="none" stroke-width="1.1"/>
            <rect x="355" y="257" clip-path="url(#clipPath19)"
                fill="none" width="19" height="31" stroke-width="1.1"/>
            <rect x="355" y="296" clip-path="url(#clipPath20)"
                fill="rgb(200,255,200)" width="20" height="40"
                stroke="none" stroke-width="1.1"/>
            <rect x="355" y="296" clip-path="url(#clipPath20)"
                fill="none" width="19" height="39" stroke-width="1.1"/>
            <rect x="355" y="348" clip-path="url(#clipPath21)"
                fill="rgb(200,255,200)" width="20" height="40"
                stroke="none" stroke-width="1.1"/>
            <rect x="355" y="348" clip-path="url(#clipPath21)"
                fill="none" width="19" height="39" stroke-width="1.1"/>
            <rect x="0" y="0" clip-path="url(#clipPath1)" fill="none"
                width="799" height="1147" stroke-width="1.1"/>
            <line clip-path="url(#clipPath22)" fill="none" x1="28"
                x2="161" y1="131" y2="132"/>
            <text font-size="13" x="61" y="127"
                clip-path="url(#clipPath23)" font-family="'Dialog'"
                stroke="none" xml:space="preserve">1: onLoad()</text>
            <circle r="4.5" clip-path="url(#clipPath24)" cx="27.5"
                cy="130.5" stroke="none"/>
            <circle fill="none" r="5" clip-path="url(#clipPath24)"
                cx="28" cy="131"/>
            <polygon clip-path="url(#clipPath25)"
                points=" 161 132 151 137 151 127" stroke="none"/>
            <polygon fill="none" stroke-width="1.1"
                clip-path="url(#clipPath25)" points=" 161 132 151 137 151 127"/>
            <line clip-path="url(#clipPath26)" fill="none" x1="181"
                x2="211" y1="133" y2="133"/>
            <line clip-path="url(#clipPath26)" fill="none" x1="211"
                x2="211" y1="133" y2="176"/>
            <line clip-path="url(#clipPath26)" fill="none" x1="211"
                x2="194" y1="176" y2="176"/>
            <text font-size="13" x="220" y="150"
                clip-path="url(#clipPath27)" font-family="'Dialog'"
                stroke="none" xml:space="preserve">init()</text>
            <polygon clip-path="url(#clipPath28)"
                points=" 194 176 204 171 204 181" stroke="none"/>
            <polygon fill="none" stroke-width="1.1"
                clip-path="url(#clipPath28)" points=" 194 176 204 171 204 181"/>
            <line clip-path="url(#clipPath29)" fill="none" x1="196"
                x2="355" y1="196" y2="197"/>
            <text font-size="13" x="231" y="192"
                clip-path="url(#clipPath30)" font-family="'Dialog'"
                stroke="none" xml:space="preserve">addObserver()</text>
            <circle r="4.5" clip-path="url(#clipPath31)" cx="195.5"
                cy="195.5" stroke="none"/>
            <circle fill="none" r="5" clip-path="url(#clipPath31)"
                cx="196" cy="196"/>
            <polygon clip-path="url(#clipPath32)"
                points=" 355 197 345 202 345 192" stroke="none"/>
            <polygon fill="none" stroke-width="1.1"
                clip-path="url(#clipPath32)" points=" 355 197 345 202 345 192"/>
            <line clip-path="url(#clipPath33)" fill="none" x1="199"
                x2="355" y1="236" y2="237"/>
            <text font-size="13" x="232" y="232"
                clip-path="url(#clipPath34)" font-family="'Dialog'"
                stroke="none" xml:space="preserve">getTrafficURL()</text>
            <circle r="4.5" clip-path="url(#clipPath35)" cx="198.5"
                cy="235.5" stroke="none"/>
            <circle fill="none" r="5" clip-path="url(#clipPath35)"
                cx="199" cy="236"/>
            <polygon clip-path="url(#clipPath36)"
                points=" 355 237 345 242 345 232" stroke="none"/>
            <polygon fill="none" stroke-width="1.1"
                clip-path="url(#clipPath36)" points=" 355 237 345 242 345 232"/>
            <line clip-path="url(#clipPath37)" fill="none" x1="194"
                x2="256" y1="388" y2="388"/>
            <line clip-path="url(#clipPath37)" fill="none" x1="256"
                x2="256" y1="388" y2="444"/>
            <line clip-path="url(#clipPath37)" fill="none" x1="256"
                x2="207" y1="444" y2="444"/>
            <text font-size="13" x="265" y="422"
                clip-path="url(#clipPath38)" font-family="'Dialog'"
                stroke="none" xml:space="preserve">getTraffic()</text>
            <polygon clip-path="url(#clipPath39)"
                points=" 207 444 217 439 217 449" stroke="none"/>
            <polygon fill="none" stroke-width="1.1"
                clip-path="url(#clipPath39)" points=" 207 444 217 439 217 449"/>
            <line clip-path="url(#clipPath40)" fill="none" x1="200"
                x2="355" y1="266" y2="267"/>
            <text font-size="13" x="217" y="262"
                clip-path="url(#clipPath41)" font-family="'Dialog'"
                stroke="none" xml:space="preserve">getTrafficViewURL()</text>
            <circle r="4.5" clip-path="url(#clipPath42)" cx="199.5"
                cy="265.5" stroke="none"/>
            <circle fill="none" r="5" clip-path="url(#clipPath42)"
                cx="200" cy="266"/>
            <polygon clip-path="url(#clipPath43)"
                points=" 355 267 345 272 345 262" stroke="none"/>
            <polygon fill="none" stroke-width="1.1"
                clip-path="url(#clipPath43)" points=" 355 267 345 272 345 262"/>
            <line clip-path="url(#clipPath44)" fill="none" x1="199"
                x2="355" y1="305" y2="306"/>
            <text font-size="13" x="236" y="301"
                clip-path="url(#clipPath45)" font-family="'Dialog'"
                stroke="none" xml:space="preserve">getWarnLvl1()</text>
            <circle r="4.5" clip-path="url(#clipPath46)" cx="198.5"
                cy="304.5" stroke="none"/>
            <circle fill="none" r="5" clip-path="url(#clipPath46)"
                cx="199" cy="305"/>
            <polygon clip-path="url(#clipPath47)"
                points=" 355 306 345 311 345 301" stroke="none"/>
            <polygon fill="none" stroke-width="1.1"
                clip-path="url(#clipPath47)" points=" 355 306 345 311 345 301"/>
            <line clip-path="url(#clipPath48)" fill="none" x1="199"
                x2="355" y1="357" y2="358"/>
            <text font-size="13" x="236" y="353"
                clip-path="url(#clipPath49)" font-family="'Dialog'"
                stroke="none" xml:space="preserve">getWarnLvl2()</text>
            <circle r="4.5" clip-path="url(#clipPath50)" cx="198.5"
                cy="356.5" stroke="none"/>
            <circle fill="none" r="5" clip-path="url(#clipPath50)"
                cx="199" cy="357"/>
            <polygon clip-path="url(#clipPath51)"
                points=" 355 358 345 363 345 353" stroke="none"/>
            <polygon fill="none" stroke-width="1.1"
                clip-path="url(#clipPath51)" points=" 355 358 345 363 345 353"/>
            <line clip-path="url(#clipPath1)" fill="none" x1="0" x2="0"
                y1="0" y2="1148" stroke-dasharray="1,5" stroke="silver"/>
            <line clip-path="url(#clipPath1)" fill="none" x1="12"
                x2="12" y1="0" y2="1148" stroke-dasharray="1,5" stroke="silver"/>
            <line clip-path="url(#clipPath1)" fill="none" x1="24"
                x2="24" y1="0" y2="1148" stroke-dasharray="1,5" stroke="silver"/>
            <line clip-path="url(#clipPath1)" fill="none" x1="36"
                x2="36" y1="0" y2="1148" stroke-dasharray="1,5" stroke="silver"/>
            <line clip-path="url(#clipPath1)" fill="none" x1="48"
                x2="48" y1="0" y2="1148" stroke-dasharray="1,5" stroke="silver"/>
            <line clip-path="url(#clipPath1)" fill="none" x1="60"
                x2="60" y1="0" y2="1148" stroke-dasharray="1,5" stroke="silver"/>
            <line clip-path="url(#clipPath1)" fill="none" x1="72"
                x2="72" y1="0" y2="1148" stroke-dasharray="1,5" stroke="silver"/>
            <line clip-path="url(#clipPath1)" fill="none" x1="84"
                x2="84" y1="0" y2="1148" stroke-dasharray="1,5" stroke="silver"/>
            <line clip-path="url(#clipPath1)" fill="none" x1="96"
                x2="96" y1="0" y2="1148" stroke-dasharray="1,5" stroke="silver"/>
            <line clip-path="url(#clipPath1)" fill="none" x1="108"
                x2="108" y1="0" y2="1148" stroke-dasharray="1,5" stroke="silver"/>
            <line clip-path="url(#clipPath1)" fill="none" x1="120"
                x2="120" y1="0" y2="1148" stroke-dasharray="1,5" stroke="silver"/>
            <line clip-path="url(#clipPath1)" fill="none" x1="132"
                x2="132" y1="0" y2="1148" stroke-dasharray="1,5" stroke="silver"/>
            <line clip-path="url(#clipPath1)" fill="none" x1="144"
                x2="144" y1="0" y2="1148" stroke-dasharray="1,5" stroke="silver"/>
            <line clip-path="url(#clipPath1)" fill="none" x1="156"
                x2="156" y1="0" y2="1148" stroke-dasharray="1,5" stroke="silver"/>
            <line clip-path="url(#clipPath1)" fill="none" x1="168"
                x2="168" y1="0" y2="1148" stroke-dasharray="1,5" stroke="silver"/>
            <line clip-path="url(#clipPath1)" fill="none" x1="180"
                x2="180" y1="0" y2="1148" stroke-dasharray="1,5" stroke="silver"/>
            <line clip-path="url(#clipPath1)" fill="none" x1="192"
                x2="192" y1="0" y2="1148" stroke-dasharray="1,5" stroke="silver"/>
            <line clip-path="url(#clipPath1)" fill="none" x1="204"
                x2="204" y1="0" y2="1148" stroke-dasharray="1,5" stroke="silver"/>
            <line clip-path="url(#clipPath1)" fill="none" x1="216"
                x2="216" y1="0" y2="1148" stroke-dasharray="1,5" stroke="silver"/>
            <line clip-path="url(#clipPath1)" fill="none" x1="228"
                x2="228" y1="0" y2="1148" stroke-dasharray="1,5" stroke="silver"/>
            <line clip-path="url(#clipPath1)" fill="none" x1="240"
                x2="240" y1="0" y2="1148" stroke-dasharray="1,5" stroke="silver"/>
            <line clip-path="url(#clipPath1)" fill="none" x1="252"
                x2="252" y1="0" y2="1148" stroke-dasharray="1,5" stroke="silver"/>
            <line clip-path="url(#clipPath1)" fill="none" x1="264"
                x2="264" y1="0" y2="1148" stroke-dasharray="1,5" stroke="silver"/>
            <line clip-path="url(#clipPath1)" fill="none" x1="276"
                x2="276" y1="0" y2="1148" stroke-dasharray="1,5" stroke="silver"/>
            <line clip-path="url(#clipPath1)" fill="none" x1="288"
                x2="288" y1="0" y2="1148" stroke-dasharray="1,5" stroke="silver"/>
            <line clip-path="url(#clipPath1)" fill="none" x1="300"
                x2="300" y1="0" y2="1148" stroke-dasharray="1,5" stroke="silver"/>
            <line clip-path="url(#clipPath1)" fill="none" x1="312"
                x2="312" y1="0" y2="1148" stroke-dasharray="1,5" stroke="silver"/>
            <line clip-path="url(#clipPath1)" fill="none" x1="324"
                x2="324" y1="0" y2="1148" stroke-dasharray="1,5" stroke="silver"/>
            <line clip-path="url(#clipPath1)" fill="none" x1="336"
                x2="336" y1="0" y2="1148" stroke-dasharray="1,5" stroke="silver"/>
            <line clip-path="url(#clipPath1)" fill="none" x1="348"
                x2="348" y1="0" y2="1148" stroke-dasharray="1,5" stroke="silver"/>
            <line clip-path="url(#clipPath1)" fill="none" x1="360"
                x2="360" y1="0" y2="1148" stroke-dasharray="1,5" stroke="silver"/>
            <line clip-path="url(#clipPath1)" fill="none" x1="372"
                x2="372" y1="0" y2="1148" stroke-dasharray="1,5" stroke="silver"/>
            <line clip-path="url(#clipPath1)" fill="none" x1="384"
                x2="384" y1="0" y2="1148" stroke-dasharray="1,5" stroke="silver"/>
            <line clip-path="url(#clipPath1)" fill="none" x1="396"
                x2="396" y1="0" y2="1148" stroke-dasharray="1,5" stroke="silver"/>
            <line clip-path="url(#clipPath1)" fill="none" x1="408"
                x2="408" y1="0" y2="1148" stroke-dasharray="1,5" stroke="silver"/>
            <line clip-path="url(#clipPath1)" fill="none" x1="420"
                x2="420" y1="0" y2="1148" stroke-dasharray="1,5" stroke="silver"/>
            <line clip-path="url(#clipPath1)" fill="none" x1="432"
                x2="432" y1="0" y2="1148" stroke-dasharray="1,5" stroke="silver"/>
            <line clip-path="url(#clipPath1)" fill="none" x1="444"
                x2="444" y1="0" y2="1148" stroke-dasharray="1,5" stroke="silver"/>
            <line clip-path="url(#clipPath1)" fill="none" x1="456"
                x2="456" y1="0" y2="1148" stroke-dasharray="1,5" stroke="silver"/>
            <line clip-path="url(#clipPath1)" fill="none" x1="468"
                x2="468" y1="0" y2="1148" stroke-dasharray="1,5" stroke="silver"/>
            <line clip-path="url(#clipPath1)" fill="none" x1="480"
                x2="480" y1="0" y2="1148" stroke-dasharray="1,5" stroke="silver"/>
            <line clip-path="url(#clipPath1)" fill="none" x1="492"
                x2="492" y1="0" y2="1148" stroke-dasharray="1,5" stroke="silver"/>
            <line clip-path="url(#clipPath1)" fill="none" x1="504"
                x2="504" y1="0" y2="1148" stroke-dasharray="1,5" stroke="silver"/>
            <line clip-path="url(#clipPath1)" fill="none" x1="516"
                x2="516" y1="0" y2="1148" stroke-dasharray="1,5" stroke="silver"/>
            <line clip-path="url(#clipPath1)" fill="none" x1="528"
                x2="528" y1="0" y2="1148" stroke-dasharray="1,5" stroke="silver"/>
            <line clip-path="url(#clipPath1)" fill="none" x1="540"
                x2="540" y1="0" y2="1148" stroke-dasharray="1,5" stroke="silver"/>
            <line clip-path="url(#clipPath1)" fill="none" x1="552"
                x2="552" y1="0" y2="1148" stroke-dasharray="1,5" stroke="silver"/>
            <line clip-path="url(#clipPath1)" fill="none" x1="564"
                x2="564" y1="0" y2="1148" stroke-dasharray="1,5" stroke="silver"/>
            <line clip-path="url(#clipPath1)" fill="none" x1="576"
                x2="576" y1="0" y2="1148" stroke-dasharray="1,5" stroke="silver"/>
            <line clip-path="url(#clipPath1)" fill="none" x1="588"
                x2="588" y1="0" y2="1148" stroke-dasharray="1,5" stroke="silver"/>
            <line clip-path="url(#clipPath1)" fill="none" x1="600"
                x2="600" y1="0" y2="1148" stroke-dasharray="1,5" stroke="silver"/>
            <line clip-path="url(#clipPath1)" fill="none" x1="612"
                x2="612" y1="0" y2="1148" stroke-dasharray="1,5" stroke="silver"/>
            <line clip-path="url(#clipPath1)" fill="none" x1="624"
                x2="624" y1="0" y2="1148" stroke-dasharray="1,5" stroke="silver"/>
            <line clip-path="url(#clipPath1)" fill="none" x1="636"
                x2="636" y1="0" y2="1148" stroke-dasharray="1,5" stroke="silver"/>
            <line clip-path="url(#clipPath1)" fill="none" x1="648"
                x2="648" y1="0" y2="1148" stroke-dasharray="1,5" stroke="silver"/>
            <line clip-path="url(#clipPath1)" fill="none" x1="660"
                x2="660" y1="0" y2="1148" stroke-dasharray="1,5" stroke="silver"/>
            <line clip-path="url(#clipPath1)" fill="none" x1="672"
                x2="672" y1="0" y2="1148" stroke-dasharray="1,5" stroke="silver"/>
            <line clip-path="url(#clipPath1)" fill="none" x1="684"
                x2="684" y1="0" y2="1148" stroke-dasharray="1,5" stroke="silver"/>
            <line clip-path="url(#clipPath1)" fill="none" x1="696"
                x2="696" y1="0" y2="1148" stroke-dasharray="1,5" stroke="silver"/>
            <line clip-path="url(#clipPath1)" fill="none" x1="708"
                x2="708" y1="0" y2="1148" stroke-dasharray="1,5" stroke="silver"/>
            <line clip-path="url(#clipPath1)" fill="none" x1="720"
                x2="720" y1="0" y2="1148" stroke-dasharray="1,5" stroke="silver"/>
            <line clip-path="url(#clipPath1)" fill="none" x1="732"
                x2="732" y1="0" y2="1148" stroke-dasharray="1,5" stroke="silver"/>
            <line clip-path="url(#clipPath1)" fill="none" x1="744"
                x2="744" y1="0" y2="1148" stroke-dasharray="1,5" stroke="silver"/>
            <line clip-path="url(#clipPath1)" fill="none" x1="756"
                x2="756" y1="0" y2="1148" stroke-dasharray="1,5" stroke="silver"/>
            <line clip-path="url(#clipPath1)" fill="none" x1="768"
                x2="768" y1="0" y2="1148" stroke-dasharray="1,5" stroke="silver"/>
            <line clip-path="url(#clipPath1)" fill="none" x1="780"
                x2="780" y1="0" y2="1148" stroke-dasharray="1,5" stroke="silver"/>
            <line clip-path="url(#clipPath1)" fill="none" x1="792"
                x2="792" y1="0" y2="1148" stroke-dasharray="1,5" stroke="silver"/>
            <line clip-path="url(#clipPath1)" fill="none" x1="0"
                x2="800" y1="0" y2="0" stroke-dasharray="1,5" stroke="silver"/>
            <line clip-path="url(#clipPath1)" fill="none" x1="0"
                x2="800" y1="12" y2="12" stroke-dasharray="1,5" stroke="silver"/>
            <line clip-path="url(#clipPath1)" fill="none" x1="0"
                x2="800" y1="24" y2="24" stroke-dasharray="1,5" stroke="silver"/>
            <line clip-path="url(#clipPath1)" fill="none" x1="0"
                x2="800" y1="36" y2="36" stroke-dasharray="1,5" stroke="silver"/>
            <line clip-path="url(#clipPath1)" fill="none" x1="0"
                x2="800" y1="48" y2="48" stroke-dasharray="1,5" stroke="silver"/>
            <line clip-path="url(#clipPath1)" fill="none" x1="0"
                x2="800" y1="60" y2="60" stroke-dasharray="1,5" stroke="silver"/>
            <line clip-path="url(#clipPath1)" fill="none" x1="0"
                x2="800" y1="72" y2="72" stroke-dasharray="1,5" stroke="silver"/>
            <line clip-path="url(#clipPath1)" fill="none" x1="0"
                x2="800" y1="84" y2="84" stroke-dasharray="1,5" stroke="silver"/>
            <line clip-path="url(#clipPath1)" fill="none" x1="0"
                x2="800" y1="96" y2="96" stroke-dasharray="1,5" stroke="silver"/>
            <line clip-path="url(#clipPath1)" fill="none" x1="0"
                x2="800" y1="108" y2="108" stroke-dasharray="1,5" stroke="silver"/>
            <line clip-path="url(#clipPath1)" fill="none" x1="0"
                x2="800" y1="120" y2="120" stroke-dasharray="1,5" stroke="silver"/>
            <line clip-path="url(#clipPath1)" fill="none" x1="0"
                x2="800" y1="132" y2="132" stroke-dasharray="1,5" stroke="silver"/>
            <line clip-path="url(#clipPath1)" fill="none" x1="0"
                x2="800" y1="144" y2="144" stroke-dasharray="1,5" stroke="silver"/>
            <line clip-path="url(#clipPath1)" fill="none" x1="0"
                x2="800" y1="156" y2="156" stroke-dasharray="1,5" stroke="silver"/>
            <line clip-path="url(#clipPath1)" fill="none" x1="0"
                x2="800" y1="168" y2="168" stroke-dasharray="1,5" stroke="silver"/>
            <line clip-path="url(#clipPath1)" fill="none" x1="0"
                x2="800" y1="180" y2="180" stroke-dasharray="1,5" stroke="silver"/>
            <line clip-path="url(#clipPath1)" fill="none" x1="0"
                x2="800" y1="192" y2="192" stroke-dasharray="1,5" stroke="silver"/>
            <line clip-path="url(#clipPath1)" fill="none" x1="0"
                x2="800" y1="204" y2="204" stroke-dasharray="1,5" stroke="silver"/>
            <line clip-path="url(#clipPath1)" fill="none" x1="0"
                x2="800" y1="216" y2="216" stroke-dasharray="1,5" stroke="silver"/>
            <line clip-path="url(#clipPath1)" fill="none" x1="0"
                x2="800" y1="228" y2="228" stroke-dasharray="1,5" stroke="silver"/>
            <line clip-path="url(#clipPath1)" fill="none" x1="0"
                x2="800" y1="240" y2="240" stroke-dasharray="1,5" stroke="silver"/>
            <line clip-path="url(#clipPath1)" fill="none" x1="0"
                x2="800" y1="252" y2="252" stroke-dasharray="1,5" stroke="silver"/>
            <line clip-path="url(#clipPath1)" fill="none" x1="0"
                x2="800" y1="264" y2="264" stroke-dasharray="1,5" stroke="silver"/>
            <line clip-path="url(#clipPath1)" fill="none" x1="0"
                x2="800" y1="276" y2="276" stroke-dasharray="1,5" stroke="silver"/>
            <line clip-path="url(#clipPath1)" fill="none" x1="0"
                x2="800" y1="288" y2="288" stroke-dasharray="1,5" stroke="silver"/>
            <line clip-path="url(#clipPath1)" fill="none" x1="0"
                x2="800" y1="300" y2="300" stroke-dasharray="1,5" stroke="silver"/>
            <line clip-path="url(#clipPath1)" fill="none" x1="0"
                x2="800" y1="312" y2="312" stroke-dasharray="1,5" stroke="silver"/>
            <line clip-path="url(#clipPath1)" fill="none" x1="0"
                x2="800" y1="324" y2="324" stroke-dasharray="1,5" stroke="silver"/>
            <line clip-path="url(#clipPath1)" fill="none" x1="0"
                x2="800" y1="336" y2="336" stroke-dasharray="1,5" stroke="silver"/>
            <line clip-path="url(#clipPath1)" fill="none" x1="0"
                x2="800" y1="348" y2="348" stroke-dasharray="1,5" stroke="silver"/>
            <line clip-path="url(#clipPath1)" fill="none" x1="0"
                x2="800" y1="360" y2="360" stroke-dasharray="1,5" stroke="silver"/>
            <line clip-path="url(#clipPath1)" fill="none" x1="0"
                x2="800" y1="372" y2="372" stroke-dasharray="1,5" stroke="silver"/>
            <line clip-path="url(#clipPath1)" fill="none" x1="0"
                x2="800" y1="384" y2="384" stroke-dasharray="1,5" stroke="silver"/>
            <line clip-path="url(#clipPath1)" fill="none" x1="0"
                x2="800" y1="396" y2="396" stroke-dasharray="1,5" stroke="silver"/>
            <line clip-path="url(#clipPath1)" fill="none" x1="0"
                x2="800" y1="408" y2="408" stroke-dasharray="1,5" stroke="silver"/>
            <line clip-path="url(#clipPath1)" fill="none" x1="0"
                x2="800" y1="420" y2="420" stroke-dasharray="1,5" stroke="silver"/>
            <line clip-path="url(#clipPath1)" fill="none" x1="0"
                x2="800" y1="432" y2="432" stroke-dasharray="1,5" stroke="silver"/>
            <line clip-path="url(#clipPath1)" fill="none" x1="0"
                x2="800" y1="444" y2="444" stroke-dasharray="1,5" stroke="silver"/>
            <line clip-path="url(#clipPath1)" fill="none" x1="0"
                x2="800" y1="456" y2="456" stroke-dasharray="1,5" stroke="silver"/>
            <line clip-path="url(#clipPath1)" fill="none" x1="0"
                x2="800" y1="468" y2="468" stroke-dasharray="1,5" stroke="silver"/>
            <line clip-path="url(#clipPath1)" fill="none" x1="0"
                x2="800" y1="480" y2="480" stroke-dasharray="1,5" stroke="silver"/>
            <line clip-path="url(#clipPath1)" fill="none" x1="0"
                x2="800" y1="492" y2="492" stroke-dasharray="1,5" stroke="silver"/>
            <line clip-path="url(#clipPath1)" fill="none" x1="0"
                x2="800" y1="504" y2="504" stroke-dasharray="1,5" stroke="silver"/>
            <line clip-path="url(#clipPath1)" fill="none" x1="0"
                x2="800" y1="516" y2="516" stroke-dasharray="1,5" stroke="silver"/>
            <line clip-path="url(#clipPath1)" fill="none" x1="0"
                x2="800" y1="528" y2="528" stroke-dasharray="1,5" stroke="silver"/>
            <line clip-path="url(#clipPath1)" fill="none" x1="0"
                x2="800" y1="540" y2="540" stroke-dasharray="1,5" stroke="silver"/>
            <line clip-path="url(#clipPath1)" fill="none" x1="0"
                x2="800" y1="552" y2="552" stroke-dasharray="1,5" stroke="silver"/>
            <line clip-path="url(#clipPath1)" fill="none" x1="0"
                x2="800" y1="564" y2="564" stroke-dasharray="1,5" stroke="silver"/>
            <line clip-path="url(#clipPath1)" fill="none" x1="0"
                x2="800" y1="576" y2="576" stroke-dasharray="1,5" stroke="silver"/>
            <line clip-path="url(#clipPath1)" fill="none" x1="0"
                x2="800" y1="588" y2="588" stroke-dasharray="1,5" stroke="silver"/>
            <line clip-path="url(#clipPath1)" fill="none" x1="0"
                x2="800" y1="600" y2="600" stroke-dasharray="1,5" stroke="silver"/>
            <line clip-path="url(#clipPath1)" fill="none" x1="0"
                x2="800" y1="612" y2="612" stroke-dasharray="1,5" stroke="silver"/>
            <line clip-path="url(#clipPath1)" fill="none" x1="0"
                x2="800" y1="624" y2="624" stroke-dasharray="1,5" stroke="silver"/>
            <line clip-path="url(#clipPath1)" fill="none" x1="0"
                x2="800" y1="636" y2="636" stroke-dasharray="1,5" stroke="silver"/>
            <line clip-path="url(#clipPath1)" fill="none" x1="0"
                x2="800" y1="648" y2="648" stroke-dasharray="1,5" stroke="silver"/>
            <line clip-path="url(#clipPath1)" fill="none" x1="0"
                x2="800" y1="660" y2="660" stroke-dasharray="1,5" stroke="silver"/>
            <line clip-path="url(#clipPath1)" fill="none" x1="0"
                x2="800" y1="672" y2="672" stroke-dasharray="1,5" stroke="silver"/>
            <line clip-path="url(#clipPath1)" fill="none" x1="0"
                x2="800" y1="684" y2="684" stroke-dasharray="1,5" stroke="silver"/>
            <line clip-path="url(#clipPath1)" fill="none" x1="0"
                x2="800" y1="696" y2="696" stroke-dasharray="1,5" stroke="silver"/>
            <line clip-path="url(#clipPath1)" fill="none" x1="0"
                x2="800" y1="708" y2="708" stroke-dasharray="1,5" stroke="silver"/>
            <line clip-path="url(#clipPath1)" fill="none" x1="0"
                x2="800" y1="720" y2="720" stroke-dasharray="1,5" stroke="silver"/>
            <line clip-path="url(#clipPath1)" fill="none" x1="0"
                x2="800" y1="732" y2="732" stroke-dasharray="1,5" stroke="silver"/>
            <line clip-path="url(#clipPath1)" fill="none" x1="0"
                x2="800" y1="744" y2="744" stroke-dasharray="1,5" stroke="silver"/>
            <line clip-path="url(#clipPath1)" fill="none" x1="0"
                x2="800" y1="756" y2="756" stroke-dasharray="1,5" stroke="silver"/>
            <line clip-path="url(#clipPath1)" fill="none" x1="0"
                x2="800" y1="768" y2="768" stroke-dasharray="1,5" stroke="silver"/>
            <line clip-path="url(#clipPath1)" fill="none" x1="0"
                x2="800" y1="780" y2="780" stroke-dasharray="1,5" stroke="silver"/>
            <line clip-path="url(#clipPath1)" fill="none" x1="0"
                x2="800" y1="792" y2="792" stroke-dasharray="1,5" stroke="silver"/>
            <line clip-path="url(#clipPath1)" fill="none" x1="0"
                x2="800" y1="804" y2="804" stroke-dasharray="1,5" stroke="silver"/>
            <line clip-path="url(#clipPath1)" fill="none" x1="0"
                x2="800" y1="816" y2="816" stroke-dasharray="1,5" stroke="silver"/>
            <line clip-path="url(#clipPath1)" fill="none" x1="0"
                x2="800" y1="828" y2="828" stroke-dasharray="1,5" stroke="silver"/>
            <line clip-path="url(#clipPath1)" fill="none" x1="0"
                x2="800" y1="840" y2="840" stroke-dasharray="1,5" stroke="silver"/>
            <line clip-path="url(#clipPath1)" fill="none" x1="0"
                x2="800" y1="852" y2="852" stroke-dasharray="1,5" stroke="silver"/>
            <line clip-path="url(#clipPath1)" fill="none" x1="0"
                x2="800" y1="864" y2="864" stroke-dasharray="1,5" stroke="silver"/>
            <line clip-path="url(#clipPath1)" fill="none" x1="0"
                x2="800" y1="876" y2="876" stroke-dasharray="1,5" stroke="silver"/>
            <line clip-path="url(#clipPath1)" fill="none" x1="0"
                x2="800" y1="888" y2="888" stroke-dasharray="1,5" stroke="silver"/>
            <line clip-path="url(#clipPath1)" fill="none" x1="0"
                x2="800" y1="900" y2="900" stroke-dasharray="1,5" stroke="silver"/>
            <line clip-path="url(#clipPath1)" fill="none" x1="0"
                x2="800" y1="912" y2="912" stroke-dasharray="1,5" stroke="silver"/>
            <line clip-path="url(#clipPath1)" fill="none" x1="0"
                x2="800" y1="924" y2="924" stroke-dasharray="1,5" stroke="silver"/>
            <line clip-path="url(#clipPath1)" fill="none" x1="0"
                x2="800" y1="936" y2="936" stroke-dasharray="1,5" stroke="silver"/>
            <line clip-path="url(#clipPath1)" fill="none" x1="0"
                x2="800" y1="948" y2="948" stroke-dasharray="1,5" stroke="silver"/>
            <line clip-path="url(#clipPath1)" fill="none" x1="0"
                x2="800" y1="960" y2="960" stroke-dasharray="1,5" stroke="silver"/>
            <line clip-path="url(#clipPath1)" fill="none" x1="0"
                x2="800" y1="972" y2="972" stroke-dasharray="1,5" stroke="silver"/>
            <line clip-path="url(#clipPath1)" fill="none" x1="0"
                x2="800" y1="984" y2="984" stroke-dasharray="1,5" stroke="silver"/>
            <line clip-path="url(#clipPath1)" fill="none" x1="0"
                x2="800" y1="996" y2="996" stroke-dasharray="1,5" stroke="silver"/>
            <line clip-path="url(#clipPath1)" fill="none" x1="0"
                x2="800" y1="1008" y2="1008" stroke-dasharray="1,5" stroke="silver"/>
            <line clip-path="url(#clipPath1)" fill="none" x1="0"
                x2="800" y1="1020" y2="1020" stroke-dasharray="1,5" stroke="silver"/>
            <line clip-path="url(#clipPath1)" fill="none" x1="0"
                x2="800" y1="1032" y2="1032" stroke-dasharray="1,5" stroke="silver"/>
            <line clip-path="url(#clipPath1)" fill="none" x1="0"
                x2="800" y1="1044" y2="1044" stroke-dasharray="1,5" stroke="silver"/>
            <line clip-path="url(#clipPath1)" fill="none" x1="0"
                x2="800" y1="1056" y2="1056" stroke-dasharray="1,5" stroke="silver"/>
            <line clip-path="url(#clipPath1)" fill="none" x1="0"
                x2="800" y1="1068" y2="1068" stroke-dasharray="1,5" stroke="silver"/>
            <line clip-path="url(#clipPath1)" fill="none" x1="0"
                x2="800" y1="1080" y2="1080" stroke-dasharray="1,5" stroke="silver"/>
            <line clip-path="url(#clipPath1)" fill="none" x1="0"
                x2="800" y1="1092" y2="1092" stroke-dasharray="1,5" stroke="silver"/>
            <line clip-path="url(#clipPath1)" fill="none" x1="0"
                x2="800" y1="1104" y2="1104" stroke-dasharray="1,5" stroke="silver"/>
            <line clip-path="url(#clipPath1)" fill="none" x1="0"
                x2="800" y1="1116" y2="1116" stroke-dasharray="1,5" stroke="silver"/>
            <line clip-path="url(#clipPath1)" fill="none" x1="0"
                x2="800" y1="1128" y2="1128" stroke-dasharray="1,5" stroke="silver"/>
            <line clip-path="url(#clipPath1)" fill="none" x1="0"
                x2="800" y1="1140" y2="1140" stroke-dasharray="1,5" stroke="silver"/>
        </g>
    </g>
</svg>
