<?xml version="1.0" encoding="UTF-8"?>
<svg stroke-dasharray="none" shape-rendering="auto"
    font-family="'Dialog'" width="801" text-rendering="auto"
    fill-opacity="1" color-interpolation="auto" color-rendering="auto"
    font-size="12" fill="black" stroke="black" image-rendering="auto"
    stroke-miterlimit="10" stroke-linecap="square"
    stroke-linejoin="miter" font-style="normal" height="1149"
    stroke-width="1" stroke-dashoffset="0" font-weight="normal" stroke-opacity="1">
    <!--Generated by the Batik Graphics2D SVG Generator-->
    <defs id="genericDefs"/>
    <g>
        <defs id="defs1">
            <clipPath clipPathUnits="userSpaceOnUse" id="clipPath1">
                <path d="M-1 -1 L801 -1 L801 1149 L-1 1149 L-1 -1 Z"/>
            </clipPath>
            <clipPath clipPathUnits="userSpaceOnUse" id="clipPath2">
                <path d="M5 6 L58 6 L58 21 L5 21 L5 6 Z"/>
            </clipPath>
            <clipPath clipPathUnits="userSpaceOnUse" id="clipPath3">
                <path d="M58 5 L141 5 L141 23 L58 23 L58 5 Z"/>
            </clipPath>
            <clipPath clipPathUnits="userSpaceOnUse" id="clipPath4">
                <path d="M245 35 L722 35 L722 501 L245 501 L245 35 Z"/>
            </clipPath>
            <clipPath clipPathUnits="userSpaceOnUse" id="clipPath5">
                <path d="M126 273 L208 273 L208 339 L126 339 L126 273 Z"/>
            </clipPath>
            <clipPath clipPathUnits="userSpaceOnUse" id="clipPath6">
                <path d="M153 337 L181 337 L181 355 L153 355 L153 337 Z"/>
            </clipPath>
            <clipPath clipPathUnits="userSpaceOnUse" id="clipPath7">
                <path d="M286 45 L477 45 L477 118 L286 118 L286 45 Z"/>
            </clipPath>
            <clipPath clipPathUnits="userSpaceOnUse" id="clipPath8">
                <path d="M312 72 L450 72 L450 90 L312 90 L312 72 Z"/>
            </clipPath>
            <clipPath clipPathUnits="userSpaceOnUse" id="clipPath9">
                <path d="M430 369 L564 369 L564 451 L430 451 L430 369 Z"/>
            </clipPath>
            <clipPath clipPathUnits="userSpaceOnUse" id="clipPath10">
                <path d="M436 401 L557 401 L557 419 L436 419 L436 401 Z"/>
            </clipPath>
            <clipPath clipPathUnits="userSpaceOnUse" id="clipPath11">
                <path d="M268 368 L408 368 L408 450 L268 450 L268 368 Z"/>
            </clipPath>
            <clipPath clipPathUnits="userSpaceOnUse" id="clipPath12">
                <path d="M277 400 L398 400 L398 418 L277 418 L277 400 Z"/>
            </clipPath>
            <clipPath clipPathUnits="userSpaceOnUse" id="clipPath13">
                <path d="M294 252 L488 252 L488 334 L294 334 L294 252 Z"/>
            </clipPath>
            <clipPath clipPathUnits="userSpaceOnUse" id="clipPath14">
                <path d="M330 284 L452 284 L452 302 L330 302 L330 284 Z"/>
            </clipPath>
            <clipPath clipPathUnits="userSpaceOnUse" id="clipPath15">
                <path d="M296 154 L482 154 L482 236 L296 236 L296 154 Z"/>
            </clipPath>
            <clipPath clipPathUnits="userSpaceOnUse" id="clipPath16">
                <path d="M304 186 L474 186 L474 204 L304 204 L304 186 Z"/>
            </clipPath>
            <clipPath clipPathUnits="userSpaceOnUse" id="clipPath17">
                <path d="M563 251 L709 251 L709 333 L563 333 L563 251 Z"/>
            </clipPath>
            <clipPath clipPathUnits="userSpaceOnUse" id="clipPath18">
                <path d="M580 283 L691 283 L691 301 L580 301 L580 283 Z"/>
            </clipPath>
            <clipPath clipPathUnits="userSpaceOnUse" id="clipPath19">
                <path d="M156 100 L397 100 L397 289 L156 289 L156 100 Z"/>
            </clipPath>
            <clipPath clipPathUnits="userSpaceOnUse" id="clipPath20">
                <path d="M133 211 L406 211 L406 307 L133 307 L133 211 Z"/>
            </clipPath>
            <clipPath clipPathUnits="userSpaceOnUse" id="clipPath21">
                <path d="M140 262 L365 262 L365 338 L140 338 L140 262 Z"/>
            </clipPath>
            <clipPath clipPathUnits="userSpaceOnUse" id="clipPath22">
                <path d="M397 315 L708 315 L708 535 L397 535 L397 315 Z"/>
            </clipPath>
            <clipPath clipPathUnits="userSpaceOnUse" id="clipPath23">
                <path d="M410 343 L480 343 L480 361 L410 361 L410 343 Z"/>
            </clipPath>
            <clipPath clipPathUnits="userSpaceOnUse" id="clipPath24">
                <path d="M423 328 L436 328 L436 342 L423 342 L423 328 Z"/>
            </clipPath>
            <clipPath clipPathUnits="userSpaceOnUse" id="clipPath25">
                <path d="M233 317 L452 317 L452 409 L233 409 L233 317 Z"/>
            </clipPath>
            <clipPath clipPathUnits="userSpaceOnUse" id="clipPath26">
                <path d="M328 342 L398 342 L398 360 L328 360 L328 342 Z"/>
            </clipPath>
            <clipPath clipPathUnits="userSpaceOnUse" id="clipPath27">
                <path d="M362 330 L374 330 L374 344 L362 344 L362 330 Z"/>
            </clipPath>
            <clipPath clipPathUnits="userSpaceOnUse" id="clipPath28">
                <path d="M359 258 L579 258 L579 314 L359 314 L359 258 Z"/>
            </clipPath>
            <clipPath clipPathUnits="userSpaceOnUse" id="clipPath29">
                <path d="M492 271 L562 271 L562 289 L492 289 L492 271 Z"/>
            </clipPath>
            <clipPath clipPathUnits="userSpaceOnUse" id="clipPath30">
                <path d="M485 286 L498 286 L498 299 L485 299 L485 286 Z"/>
            </clipPath>
        </defs>
        <g font-size="11" fill="white" font-family="'Tahoma'"
            stroke-linejoin="round" stroke="white" stroke-width="0" stroke-miterlimit="0">
            <rect x="0" y="0" clip-path="url(#clipPath1)" width="800"
                height="1148" stroke="none"/>
        </g>
        <g stroke-width="0.1" font-size="11" font-family="'Tahoma'" stroke-linecap="butt">
            <line clip-path="url(#clipPath1)" fill="none" x1="1"
                x2="145" y1="30" y2="30"/>
            <line clip-path="url(#clipPath1)" fill="none" x1="145"
                x2="152" y1="30" y2="16"/>
            <line clip-path="url(#clipPath1)" fill="none" x1="152"
                x2="152" y1="16" y2="1"/>
            <text x="6" y="18" clip-path="url(#clipPath2)" stroke="none"
                font-weight="bold" xml:space="preserve">package </text>
            <text font-size="13" x="59" y="20"
                clip-path="url(#clipPath3)" font-family="'Dialog'"
                stroke="none" xml:space="preserve">TrafficMonitor</text>
            <rect x="246" y="36" clip-path="url(#clipPath4)"
                fill="white" width="475" height="464" stroke="none"/>
            <rect x="247" y="37" clip-path="url(#clipPath4)" fill="none"
                width="473" height="462" stroke-width="2.1"/>
            <circle clip-path="url(#clipPath5)" fill="none" r="8"
                cx="167" cy="282" stroke-width="1.1"/>
            <circle clip-path="url(#clipPath5)" fill="white" r="7.5"
                cx="166.5" cy="281.5" stroke="none" stroke-width="1.1"/>
            <line clip-path="url(#clipPath5)" fill="none" x1="167"
                x2="167" y1="290" y2="314" stroke-width="1.1"/>
            <line clip-path="url(#clipPath5)" fill="none" x1="151"
                x2="183" y1="298" y2="298" stroke-width="1.1"/>
            <line clip-path="url(#clipPath5)" fill="none" x1="151"
                x2="167" y1="338" y2="314" stroke-width="1.1"/>
            <line clip-path="url(#clipPath5)" fill="none" x1="183"
                x2="167" y1="338" y2="314" stroke-width="1.1"/>
            <text font-size="13" x="154" y="352"
                clip-path="url(#clipPath6)" font-family="'Dialog'"
                stroke="none" stroke-width="1.1" xml:space="preserve">user</text>
            <ellipse clip-path="url(#clipPath7)" fill="white" rx="94"
                cx="381" ry="35" cy="81" stroke="none" stroke-width="1.1"/>
            <ellipse clip-path="url(#clipPath7)" fill="none" rx="94"
                cx="381" ry="35" cy="81" stroke-width="1.1"/>
            <text font-size="13" x="313" y="87"
                clip-path="url(#clipPath8)" font-family="'Dialog'"
                stroke="none" stroke-width="1.1" xml:space="preserve">view current traffic level</text>
            <ellipse clip-path="url(#clipPath9)" fill="white" rx="65.5"
                cx="496.5" ry="39.5" cy="409.5" stroke="none" stroke-width="1.1"/>
            <ellipse clip-path="url(#clipPath9)" fill="none" rx="65.5"
                cx="496.5" ry="39.5" cy="409.5" stroke-width="1.1"/>
            <text font-size="13" x="437" y="416"
                clip-path="url(#clipPath10)" font-family="'Dialog'"
                stroke="none" stroke-width="1.1" xml:space="preserve">change warn-level 1</text>
            <ellipse clip-path="url(#clipPath11)" fill="white" rx="68.5"
                cx="337.5" ry="39.5" cy="408.5" stroke="none" stroke-width="1.1"/>
            <ellipse clip-path="url(#clipPath11)" fill="none" rx="68.5"
                cx="337.5" ry="39.5" cy="408.5" stroke-width="1.1"/>
            <text font-size="13" x="278" y="415"
                clip-path="url(#clipPath12)" font-family="'Dialog'"
                stroke="none" stroke-width="1.1" xml:space="preserve">change warn-level 2</text>
            <ellipse clip-path="url(#clipPath13)" fill="white" rx="95.5"
                cx="390.5" ry="39.5" cy="292.5" stroke="none" stroke-width="1.1"/>
            <ellipse clip-path="url(#clipPath13)" fill="none" rx="95.5"
                cx="390.5" ry="39.5" cy="292.5" stroke-width="1.1"/>
            <text font-size="13" x="331" y="299"
                clip-path="url(#clipPath14)" font-family="'Dialog'"
                stroke="none" stroke-width="1.1" xml:space="preserve">change preferences</text>
            <ellipse clip-path="url(#clipPath15)" fill="white" rx="91.5"
                cx="388.5" ry="39.5" cy="194.5" stroke="none" stroke-width="1.1"/>
            <ellipse clip-path="url(#clipPath15)" fill="none" rx="91.5"
                cx="388.5" ry="39.5" cy="194.5" stroke-width="1.1"/>
            <text font-size="13" x="305" y="201"
                clip-path="url(#clipPath16)" font-family="'Dialog'"
                stroke="none" stroke-width="1.1" xml:space="preserve">view detailed usage of traffic</text>
            <ellipse clip-path="url(#clipPath17)" fill="white" rx="71.5"
                cx="635.5" ry="39.5" cy="291.5" stroke="none" stroke-width="1.1"/>
            <ellipse clip-path="url(#clipPath17)" fill="none" rx="71.5"
                cx="635.5" ry="39.5" cy="291.5" stroke-width="1.1"/>
            <text font-size="13" x="581" y="298"
                clip-path="url(#clipPath18)" font-family="'Dialog'"
                stroke="none" stroke-width="1.1" xml:space="preserve">change traffic URL</text>
            <rect x="0" y="0" clip-path="url(#clipPath1)" fill="none"
                width="799" height="1147" stroke-width="1.1"/>
            <line clip-path="url(#clipPath19)" fill="none" x1="203"
                x2="350" y1="274" y2="114" stroke-width="1.1"/>
            <line clip-path="url(#clipPath20)" fill="none" x1="207"
                x2="331" y1="292" y2="225" stroke-width="1.1"/>
            <line clip-path="url(#clipPath21)" fill="none" x1="207"
                x2="297" y1="310" y2="301" stroke-width="1.1"/>
        </g>
        <g stroke-width="1.1" stroke-dasharray="10,5" font-size="13" stroke-linecap="butt">
            <line clip-path="url(#clipPath22)" fill="none" x1="465"
                x2="424" y1="374" y2="329"/>
            <text xml:space="preserve" x="411" y="358"
                clip-path="url(#clipPath23)" stroke="none">&lt;&lt;extend&gt;&gt;</text>
            <line clip-path="url(#clipPath24)" fill="none" x1="434"
                x2="424" y1="333" y2="329" stroke-dasharray="none"/>
            <line clip-path="url(#clipPath24)" fill="none" x1="424"
                x2="427" y1="329" y2="340" stroke-dasharray="none"/>
            <line clip-path="url(#clipPath25)" fill="none" x1="354"
                x2="372" y1="370" y2="331"/>
            <text xml:space="preserve" x="329" y="357"
                clip-path="url(#clipPath26)" stroke="none">&lt;&lt;extend&gt;&gt;</text>
            <line clip-path="url(#clipPath27)" fill="none" x1="372"
                x2="372" y1="342" y2="331" stroke-dasharray="none"/>
            <line clip-path="url(#clipPath27)" fill="none" x1="372"
                x2="363" y1="331" y2="338" stroke-dasharray="none"/>
            <line clip-path="url(#clipPath28)" fill="none" x1="564"
                x2="486" y1="292" y2="292"/>
            <text xml:space="preserve" x="493" y="286"
                clip-path="url(#clipPath29)" stroke="none">&lt;&lt;extend&gt;&gt;</text>
            <line clip-path="url(#clipPath30)" fill="none" x1="496"
                x2="486" y1="287" y2="292" stroke-dasharray="none"/>
            <line clip-path="url(#clipPath30)" fill="none" x1="486"
                x2="496" y1="292" y2="297" stroke-dasharray="none"/>
        </g>
        <g font-size="11" stroke-linecap="butt" fill="silver"
            font-family="'Tahoma'" stroke-dasharray="1,5"
            stroke="silver" stroke-width="0.1">
            <line clip-path="url(#clipPath1)" fill="none" x1="0" x2="0"
                y1="0" y2="1148"/>
            <line clip-path="url(#clipPath1)" fill="none" x1="12"
                x2="12" y1="0" y2="1148"/>
            <line clip-path="url(#clipPath1)" fill="none" x1="24"
                x2="24" y1="0" y2="1148"/>
            <line clip-path="url(#clipPath1)" fill="none" x1="36"
                x2="36" y1="0" y2="1148"/>
            <line clip-path="url(#clipPath1)" fill="none" x1="48"
                x2="48" y1="0" y2="1148"/>
            <line clip-path="url(#clipPath1)" fill="none" x1="60"
                x2="60" y1="0" y2="1148"/>
            <line clip-path="url(#clipPath1)" fill="none" x1="72"
                x2="72" y1="0" y2="1148"/>
            <line clip-path="url(#clipPath1)" fill="none" x1="84"
                x2="84" y1="0" y2="1148"/>
            <line clip-path="url(#clipPath1)" fill="none" x1="96"
                x2="96" y1="0" y2="1148"/>
            <line clip-path="url(#clipPath1)" fill="none" x1="108"
                x2="108" y1="0" y2="1148"/>
            <line clip-path="url(#clipPath1)" fill="none" x1="120"
                x2="120" y1="0" y2="1148"/>
            <line clip-path="url(#clipPath1)" fill="none" x1="132"
                x2="132" y1="0" y2="1148"/>
            <line clip-path="url(#clipPath1)" fill="none" x1="144"
                x2="144" y1="0" y2="1148"/>
            <line clip-path="url(#clipPath1)" fill="none" x1="156"
                x2="156" y1="0" y2="1148"/>
            <line clip-path="url(#clipPath1)" fill="none" x1="168"
                x2="168" y1="0" y2="1148"/>
            <line clip-path="url(#clipPath1)" fill="none" x1="180"
                x2="180" y1="0" y2="1148"/>
            <line clip-path="url(#clipPath1)" fill="none" x1="192"
                x2="192" y1="0" y2="1148"/>
            <line clip-path="url(#clipPath1)" fill="none" x1="204"
                x2="204" y1="0" y2="1148"/>
            <line clip-path="url(#clipPath1)" fill="none" x1="216"
                x2="216" y1="0" y2="1148"/>
            <line clip-path="url(#clipPath1)" fill="none" x1="228"
                x2="228" y1="0" y2="1148"/>
            <line clip-path="url(#clipPath1)" fill="none" x1="240"
                x2="240" y1="0" y2="1148"/>
            <line clip-path="url(#clipPath1)" fill="none" x1="252"
                x2="252" y1="0" y2="1148"/>
            <line clip-path="url(#clipPath1)" fill="none" x1="264"
                x2="264" y1="0" y2="1148"/>
            <line clip-path="url(#clipPath1)" fill="none" x1="276"
                x2="276" y1="0" y2="1148"/>
            <line clip-path="url(#clipPath1)" fill="none" x1="288"
                x2="288" y1="0" y2="1148"/>
            <line clip-path="url(#clipPath1)" fill="none" x1="300"
                x2="300" y1="0" y2="1148"/>
            <line clip-path="url(#clipPath1)" fill="none" x1="312"
                x2="312" y1="0" y2="1148"/>
            <line clip-path="url(#clipPath1)" fill="none" x1="324"
                x2="324" y1="0" y2="1148"/>
            <line clip-path="url(#clipPath1)" fill="none" x1="336"
                x2="336" y1="0" y2="1148"/>
            <line clip-path="url(#clipPath1)" fill="none" x1="348"
                x2="348" y1="0" y2="1148"/>
            <line clip-path="url(#clipPath1)" fill="none" x1="360"
                x2="360" y1="0" y2="1148"/>
            <line clip-path="url(#clipPath1)" fill="none" x1="372"
                x2="372" y1="0" y2="1148"/>
            <line clip-path="url(#clipPath1)" fill="none" x1="384"
                x2="384" y1="0" y2="1148"/>
            <line clip-path="url(#clipPath1)" fill="none" x1="396"
                x2="396" y1="0" y2="1148"/>
            <line clip-path="url(#clipPath1)" fill="none" x1="408"
                x2="408" y1="0" y2="1148"/>
            <line clip-path="url(#clipPath1)" fill="none" x1="420"
                x2="420" y1="0" y2="1148"/>
            <line clip-path="url(#clipPath1)" fill="none" x1="432"
                x2="432" y1="0" y2="1148"/>
            <line clip-path="url(#clipPath1)" fill="none" x1="444"
                x2="444" y1="0" y2="1148"/>
            <line clip-path="url(#clipPath1)" fill="none" x1="456"
                x2="456" y1="0" y2="1148"/>
            <line clip-path="url(#clipPath1)" fill="none" x1="468"
                x2="468" y1="0" y2="1148"/>
            <line clip-path="url(#clipPath1)" fill="none" x1="480"
                x2="480" y1="0" y2="1148"/>
            <line clip-path="url(#clipPath1)" fill="none" x1="492"
                x2="492" y1="0" y2="1148"/>
            <line clip-path="url(#clipPath1)" fill="none" x1="504"
                x2="504" y1="0" y2="1148"/>
            <line clip-path="url(#clipPath1)" fill="none" x1="516"
                x2="516" y1="0" y2="1148"/>
            <line clip-path="url(#clipPath1)" fill="none" x1="528"
                x2="528" y1="0" y2="1148"/>
            <line clip-path="url(#clipPath1)" fill="none" x1="540"
                x2="540" y1="0" y2="1148"/>
            <line clip-path="url(#clipPath1)" fill="none" x1="552"
                x2="552" y1="0" y2="1148"/>
            <line clip-path="url(#clipPath1)" fill="none" x1="564"
                x2="564" y1="0" y2="1148"/>
            <line clip-path="url(#clipPath1)" fill="none" x1="576"
                x2="576" y1="0" y2="1148"/>
            <line clip-path="url(#clipPath1)" fill="none" x1="588"
                x2="588" y1="0" y2="1148"/>
            <line clip-path="url(#clipPath1)" fill="none" x1="600"
                x2="600" y1="0" y2="1148"/>
            <line clip-path="url(#clipPath1)" fill="none" x1="612"
                x2="612" y1="0" y2="1148"/>
            <line clip-path="url(#clipPath1)" fill="none" x1="624"
                x2="624" y1="0" y2="1148"/>
            <line clip-path="url(#clipPath1)" fill="none" x1="636"
                x2="636" y1="0" y2="1148"/>
            <line clip-path="url(#clipPath1)" fill="none" x1="648"
                x2="648" y1="0" y2="1148"/>
            <line clip-path="url(#clipPath1)" fill="none" x1="660"
                x2="660" y1="0" y2="1148"/>
            <line clip-path="url(#clipPath1)" fill="none" x1="672"
                x2="672" y1="0" y2="1148"/>
            <line clip-path="url(#clipPath1)" fill="none" x1="684"
                x2="684" y1="0" y2="1148"/>
            <line clip-path="url(#clipPath1)" fill="none" x1="696"
                x2="696" y1="0" y2="1148"/>
            <line clip-path="url(#clipPath1)" fill="none" x1="708"
                x2="708" y1="0" y2="1148"/>
            <line clip-path="url(#clipPath1)" fill="none" x1="720"
                x2="720" y1="0" y2="1148"/>
            <line clip-path="url(#clipPath1)" fill="none" x1="732"
                x2="732" y1="0" y2="1148"/>
            <line clip-path="url(#clipPath1)" fill="none" x1="744"
                x2="744" y1="0" y2="1148"/>
            <line clip-path="url(#clipPath1)" fill="none" x1="756"
                x2="756" y1="0" y2="1148"/>
            <line clip-path="url(#clipPath1)" fill="none" x1="768"
                x2="768" y1="0" y2="1148"/>
            <line clip-path="url(#clipPath1)" fill="none" x1="780"
                x2="780" y1="0" y2="1148"/>
            <line clip-path="url(#clipPath1)" fill="none" x1="792"
                x2="792" y1="0" y2="1148"/>
            <line clip-path="url(#clipPath1)" fill="none" x1="0"
                x2="800" y1="0" y2="0"/>
            <line clip-path="url(#clipPath1)" fill="none" x1="0"
                x2="800" y1="12" y2="12"/>
            <line clip-path="url(#clipPath1)" fill="none" x1="0"
                x2="800" y1="24" y2="24"/>
            <line clip-path="url(#clipPath1)" fill="none" x1="0"
                x2="800" y1="36" y2="36"/>
            <line clip-path="url(#clipPath1)" fill="none" x1="0"
                x2="800" y1="48" y2="48"/>
            <line clip-path="url(#clipPath1)" fill="none" x1="0"
                x2="800" y1="60" y2="60"/>
            <line clip-path="url(#clipPath1)" fill="none" x1="0"
                x2="800" y1="72" y2="72"/>
            <line clip-path="url(#clipPath1)" fill="none" x1="0"
                x2="800" y1="84" y2="84"/>
            <line clip-path="url(#clipPath1)" fill="none" x1="0"
                x2="800" y1="96" y2="96"/>
            <line clip-path="url(#clipPath1)" fill="none" x1="0"
                x2="800" y1="108" y2="108"/>
            <line clip-path="url(#clipPath1)" fill="none" x1="0"
                x2="800" y1="120" y2="120"/>
            <line clip-path="url(#clipPath1)" fill="none" x1="0"
                x2="800" y1="132" y2="132"/>
            <line clip-path="url(#clipPath1)" fill="none" x1="0"
                x2="800" y1="144" y2="144"/>
            <line clip-path="url(#clipPath1)" fill="none" x1="0"
                x2="800" y1="156" y2="156"/>
            <line clip-path="url(#clipPath1)" fill="none" x1="0"
                x2="800" y1="168" y2="168"/>
            <line clip-path="url(#clipPath1)" fill="none" x1="0"
                x2="800" y1="180" y2="180"/>
            <line clip-path="url(#clipPath1)" fill="none" x1="0"
                x2="800" y1="192" y2="192"/>
            <line clip-path="url(#clipPath1)" fill="none" x1="0"
                x2="800" y1="204" y2="204"/>
            <line clip-path="url(#clipPath1)" fill="none" x1="0"
                x2="800" y1="216" y2="216"/>
            <line clip-path="url(#clipPath1)" fill="none" x1="0"
                x2="800" y1="228" y2="228"/>
            <line clip-path="url(#clipPath1)" fill="none" x1="0"
                x2="800" y1="240" y2="240"/>
            <line clip-path="url(#clipPath1)" fill="none" x1="0"
                x2="800" y1="252" y2="252"/>
            <line clip-path="url(#clipPath1)" fill="none" x1="0"
                x2="800" y1="264" y2="264"/>
            <line clip-path="url(#clipPath1)" fill="none" x1="0"
                x2="800" y1="276" y2="276"/>
            <line clip-path="url(#clipPath1)" fill="none" x1="0"
                x2="800" y1="288" y2="288"/>
            <line clip-path="url(#clipPath1)" fill="none" x1="0"
                x2="800" y1="300" y2="300"/>
            <line clip-path="url(#clipPath1)" fill="none" x1="0"
                x2="800" y1="312" y2="312"/>
            <line clip-path="url(#clipPath1)" fill="none" x1="0"
                x2="800" y1="324" y2="324"/>
            <line clip-path="url(#clipPath1)" fill="none" x1="0"
                x2="800" y1="336" y2="336"/>
            <line clip-path="url(#clipPath1)" fill="none" x1="0"
                x2="800" y1="348" y2="348"/>
            <line clip-path="url(#clipPath1)" fill="none" x1="0"
                x2="800" y1="360" y2="360"/>
            <line clip-path="url(#clipPath1)" fill="none" x1="0"
                x2="800" y1="372" y2="372"/>
            <line clip-path="url(#clipPath1)" fill="none" x1="0"
                x2="800" y1="384" y2="384"/>
            <line clip-path="url(#clipPath1)" fill="none" x1="0"
                x2="800" y1="396" y2="396"/>
            <line clip-path="url(#clipPath1)" fill="none" x1="0"
                x2="800" y1="408" y2="408"/>
            <line clip-path="url(#clipPath1)" fill="none" x1="0"
                x2="800" y1="420" y2="420"/>
            <line clip-path="url(#clipPath1)" fill="none" x1="0"
                x2="800" y1="432" y2="432"/>
            <line clip-path="url(#clipPath1)" fill="none" x1="0"
                x2="800" y1="444" y2="444"/>
            <line clip-path="url(#clipPath1)" fill="none" x1="0"
                x2="800" y1="456" y2="456"/>
            <line clip-path="url(#clipPath1)" fill="none" x1="0"
                x2="800" y1="468" y2="468"/>
            <line clip-path="url(#clipPath1)" fill="none" x1="0"
                x2="800" y1="480" y2="480"/>
            <line clip-path="url(#clipPath1)" fill="none" x1="0"
                x2="800" y1="492" y2="492"/>
            <line clip-path="url(#clipPath1)" fill="none" x1="0"
                x2="800" y1="504" y2="504"/>
            <line clip-path="url(#clipPath1)" fill="none" x1="0"
                x2="800" y1="516" y2="516"/>
            <line clip-path="url(#clipPath1)" fill="none" x1="0"
                x2="800" y1="528" y2="528"/>
            <line clip-path="url(#clipPath1)" fill="none" x1="0"
                x2="800" y1="540" y2="540"/>
            <line clip-path="url(#clipPath1)" fill="none" x1="0"
                x2="800" y1="552" y2="552"/>
            <line clip-path="url(#clipPath1)" fill="none" x1="0"
                x2="800" y1="564" y2="564"/>
            <line clip-path="url(#clipPath1)" fill="none" x1="0"
                x2="800" y1="576" y2="576"/>
            <line clip-path="url(#clipPath1)" fill="none" x1="0"
                x2="800" y1="588" y2="588"/>
            <line clip-path="url(#clipPath1)" fill="none" x1="0"
                x2="800" y1="600" y2="600"/>
            <line clip-path="url(#clipPath1)" fill="none" x1="0"
                x2="800" y1="612" y2="612"/>
            <line clip-path="url(#clipPath1)" fill="none" x1="0"
                x2="800" y1="624" y2="624"/>
            <line clip-path="url(#clipPath1)" fill="none" x1="0"
                x2="800" y1="636" y2="636"/>
            <line clip-path="url(#clipPath1)" fill="none" x1="0"
                x2="800" y1="648" y2="648"/>
            <line clip-path="url(#clipPath1)" fill="none" x1="0"
                x2="800" y1="660" y2="660"/>
            <line clip-path="url(#clipPath1)" fill="none" x1="0"
                x2="800" y1="672" y2="672"/>
            <line clip-path="url(#clipPath1)" fill="none" x1="0"
                x2="800" y1="684" y2="684"/>
            <line clip-path="url(#clipPath1)" fill="none" x1="0"
                x2="800" y1="696" y2="696"/>
            <line clip-path="url(#clipPath1)" fill="none" x1="0"
                x2="800" y1="708" y2="708"/>
            <line clip-path="url(#clipPath1)" fill="none" x1="0"
                x2="800" y1="720" y2="720"/>
            <line clip-path="url(#clipPath1)" fill="none" x1="0"
                x2="800" y1="732" y2="732"/>
            <line clip-path="url(#clipPath1)" fill="none" x1="0"
                x2="800" y1="744" y2="744"/>
            <line clip-path="url(#clipPath1)" fill="none" x1="0"
                x2="800" y1="756" y2="756"/>
            <line clip-path="url(#clipPath1)" fill="none" x1="0"
                x2="800" y1="768" y2="768"/>
            <line clip-path="url(#clipPath1)" fill="none" x1="0"
                x2="800" y1="780" y2="780"/>
            <line clip-path="url(#clipPath1)" fill="none" x1="0"
                x2="800" y1="792" y2="792"/>
            <line clip-path="url(#clipPath1)" fill="none" x1="0"
                x2="800" y1="804" y2="804"/>
            <line clip-path="url(#clipPath1)" fill="none" x1="0"
                x2="800" y1="816" y2="816"/>
            <line clip-path="url(#clipPath1)" fill="none" x1="0"
                x2="800" y1="828" y2="828"/>
            <line clip-path="url(#clipPath1)" fill="none" x1="0"
                x2="800" y1="840" y2="840"/>
            <line clip-path="url(#clipPath1)" fill="none" x1="0"
                x2="800" y1="852" y2="852"/>
            <line clip-path="url(#clipPath1)" fill="none" x1="0"
                x2="800" y1="864" y2="864"/>
            <line clip-path="url(#clipPath1)" fill="none" x1="0"
                x2="800" y1="876" y2="876"/>
            <line clip-path="url(#clipPath1)" fill="none" x1="0"
                x2="800" y1="888" y2="888"/>
            <line clip-path="url(#clipPath1)" fill="none" x1="0"
                x2="800" y1="900" y2="900"/>
            <line clip-path="url(#clipPath1)" fill="none" x1="0"
                x2="800" y1="912" y2="912"/>
            <line clip-path="url(#clipPath1)" fill="none" x1="0"
                x2="800" y1="924" y2="924"/>
            <line clip-path="url(#clipPath1)" fill="none" x1="0"
                x2="800" y1="936" y2="936"/>
            <line clip-path="url(#clipPath1)" fill="none" x1="0"
                x2="800" y1="948" y2="948"/>
            <line clip-path="url(#clipPath1)" fill="none" x1="0"
                x2="800" y1="960" y2="960"/>
            <line clip-path="url(#clipPath1)" fill="none" x1="0"
                x2="800" y1="972" y2="972"/>
            <line clip-path="url(#clipPath1)" fill="none" x1="0"
                x2="800" y1="984" y2="984"/>
            <line clip-path="url(#clipPath1)" fill="none" x1="0"
                x2="800" y1="996" y2="996"/>
            <line clip-path="url(#clipPath1)" fill="none" x1="0"
                x2="800" y1="1008" y2="1008"/>
            <line clip-path="url(#clipPath1)" fill="none" x1="0"
                x2="800" y1="1020" y2="1020"/>
            <line clip-path="url(#clipPath1)" fill="none" x1="0"
                x2="800" y1="1032" y2="1032"/>
            <line clip-path="url(#clipPath1)" fill="none" x1="0"
                x2="800" y1="1044" y2="1044"/>
            <line clip-path="url(#clipPath1)" fill="none" x1="0"
                x2="800" y1="1056" y2="1056"/>
            <line clip-path="url(#clipPath1)" fill="none" x1="0"
                x2="800" y1="1068" y2="1068"/>
            <line clip-path="url(#clipPath1)" fill="none" x1="0"
                x2="800" y1="1080" y2="1080"/>
            <line clip-path="url(#clipPath1)" fill="none" x1="0"
                x2="800" y1="1092" y2="1092"/>
            <line clip-path="url(#clipPath1)" fill="none" x1="0"
                x2="800" y1="1104" y2="1104"/>
            <line clip-path="url(#clipPath1)" fill="none" x1="0"
                x2="800" y1="1116" y2="1116"/>
            <line clip-path="url(#clipPath1)" fill="none" x1="0"
                x2="800" y1="1128" y2="1128"/>
            <line clip-path="url(#clipPath1)" fill="none" x1="0"
                x2="800" y1="1140" y2="1140"/>
        </g>
    </g>
</svg>
