<?xml version="1.0" encoding="UTF-8"?>
<svg stroke-dasharray="none" shape-rendering="auto"
    font-family="'Dialog'" width="801" text-rendering="auto"
    fill-opacity="1" color-interpolation="auto" color-rendering="auto"
    font-size="12" fill="black" stroke="black" image-rendering="auto"
    stroke-miterlimit="10" stroke-linecap="square"
    stroke-linejoin="miter" font-style="normal" height="1149"
    stroke-width="1" stroke-dashoffset="0" font-weight="normal" stroke-opacity="1">
    <!--Generated by the Batik Graphics2D SVG Generator-->
    <defs id="genericDefs"/>
    <g>
        <defs id="defs1">
            <clipPath clipPathUnits="userSpaceOnUse" id="clipPath1">
                <path d="M-1 -1 L801 -1 L801 1149 L-1 1149 L-1 -1 Z"/>
            </clipPath>
            <clipPath clipPathUnits="userSpaceOnUse" id="clipPath2">
                <path d="M5 6 L58 6 L58 21 L5 21 L5 6 Z"/>
            </clipPath>
            <clipPath clipPathUnits="userSpaceOnUse" id="clipPath3">
                <path d="M58 5 L141 5 L141 23 L58 23 L58 5 Z"/>
            </clipPath>
            <clipPath clipPathUnits="userSpaceOnUse" id="clipPath4">
                <path d="M245 35 L581 35 L581 501 L245 501 L245 35 Z"/>
            </clipPath>
            <clipPath clipPathUnits="userSpaceOnUse" id="clipPath5">
                <path d="M126 273 L208 273 L208 339 L126 339 L126 273 Z"/>
            </clipPath>
            <clipPath clipPathUnits="userSpaceOnUse" id="clipPath6">
                <path d="M153 337 L181 337 L181 355 L153 355 L153 337 Z"/>
            </clipPath>
            <clipPath clipPathUnits="userSpaceOnUse" id="clipPath7">
                <path d="M286 45 L477 45 L477 118 L286 118 L286 45 Z"/>
            </clipPath>
            <clipPath clipPathUnits="userSpaceOnUse" id="clipPath8">
                <path d="M312 72 L450 72 L450 90 L312 90 L312 72 Z"/>
            </clipPath>
            <clipPath clipPathUnits="userSpaceOnUse" id="clipPath9">
                <path d="M430 369 L564 369 L564 451 L430 451 L430 369 Z"/>
            </clipPath>
            <clipPath clipPathUnits="userSpaceOnUse" id="clipPath10">
                <path d="M436 401 L557 401 L557 419 L436 419 L436 401 Z"/>
            </clipPath>
            <clipPath clipPathUnits="userSpaceOnUse" id="clipPath11">
                <path d="M268 368 L408 368 L408 450 L268 450 L268 368 Z"/>
            </clipPath>
            <clipPath clipPathUnits="userSpaceOnUse" id="clipPath12">
                <path d="M277 400 L398 400 L398 418 L277 418 L277 400 Z"/>
            </clipPath>
            <clipPath clipPathUnits="userSpaceOnUse" id="clipPath13">
                <path d="M294 252 L488 252 L488 334 L294 334 L294 252 Z"/>
            </clipPath>
            <clipPath clipPathUnits="userSpaceOnUse" id="clipPath14">
                <path d="M330 284 L452 284 L452 302 L330 302 L330 284 Z"/>
            </clipPath>
            <clipPath clipPathUnits="userSpaceOnUse" id="clipPath15">
                <path d="M296 154 L482 154 L482 236 L296 236 L296 154 Z"/>
            </clipPath>
            <clipPath clipPathUnits="userSpaceOnUse" id="clipPath16">
                <path d="M304 186 L474 186 L474 204 L304 204 L304 186 Z"/>
            </clipPath>
            <clipPath clipPathUnits="userSpaceOnUse" id="clipPath17">
                <path d="M397 315 L708 315 L708 535 L397 535 L397 315 Z"/>
            </clipPath>
            <clipPath clipPathUnits="userSpaceOnUse" id="clipPath18">
                <path d="M410 343 L480 343 L480 361 L410 361 L410 343 Z"/>
            </clipPath>
            <clipPath clipPathUnits="userSpaceOnUse" id="clipPath19">
                <path d="M423 328 L436 328 L436 342 L423 342 L423 328 Z"/>
            </clipPath>
            <clipPath clipPathUnits="userSpaceOnUse" id="clipPath20">
                <path d="M233 317 L452 317 L452 409 L233 409 L233 317 Z"/>
            </clipPath>
            <clipPath clipPathUnits="userSpaceOnUse" id="clipPath21">
                <path d="M328 342 L398 342 L398 360 L328 360 L328 342 Z"/>
            </clipPath>
            <clipPath clipPathUnits="userSpaceOnUse" id="clipPath22">
                <path d="M362 330 L374 330 L374 344 L362 344 L362 330 Z"/>
            </clipPath>
            <clipPath clipPathUnits="userSpaceOnUse" id="clipPath23">
                <path d="M156 100 L397 100 L397 289 L156 289 L156 100 Z"/>
            </clipPath>
            <clipPath clipPathUnits="userSpaceOnUse" id="clipPath24">
                <path d="M133 211 L406 211 L406 307 L133 307 L133 211 Z"/>
            </clipPath>
            <clipPath clipPathUnits="userSpaceOnUse" id="clipPath25">
                <path d="M140 262 L365 262 L365 338 L140 338 L140 262 Z"/>
            </clipPath>
        </defs>
        <g font-size="11" fill="white" font-family="'Tahoma'"
            stroke-linejoin="round" stroke="white" stroke-width="0" stroke-miterlimit="0">
            <rect x="0" y="0" clip-path="url(#clipPath1)" width="800"
                height="1148" stroke="none"/>
        </g>
        <g stroke-width="0.1" font-size="11" font-family="'Tahoma'" stroke-linecap="butt">
            <line clip-path="url(#clipPath1)" fill="none" x1="1"
                x2="145" y1="30" y2="30"/>
            <line clip-path="url(#clipPath1)" fill="none" x1="145"
                x2="152" y1="30" y2="16"/>
            <line clip-path="url(#clipPath1)" fill="none" x1="152"
                x2="152" y1="16" y2="1"/>
            <text x="6" y="18" clip-path="url(#clipPath2)" stroke="none"
                font-weight="bold" xml:space="preserve">package </text>
            <text font-size="13" x="59" y="20"
                clip-path="url(#clipPath3)" font-family="'Dialog'"
                stroke="none" xml:space="preserve">TrafficMonitor</text>
            <rect x="246" y="36" clip-path="url(#clipPath4)"
                fill="white" width="334" height="464" stroke="none"/>
            <rect x="247" y="37" clip-path="url(#clipPath4)" fill="none"
                width="332" height="462" stroke-width="2.1"/>
            <circle clip-path="url(#clipPath5)" fill="none" r="8"
                cx="167" cy="282" stroke-width="1.1"/>
            <circle clip-path="url(#clipPath5)" fill="white" r="7.5"
                cx="166.5" cy="281.5" stroke="none" stroke-width="1.1"/>
            <line clip-path="url(#clipPath5)" fill="none" x1="167"
                x2="167" y1="290" y2="314" stroke-width="1.1"/>
            <line clip-path="url(#clipPath5)" fill="none" x1="151"
                x2="183" y1="298" y2="298" stroke-width="1.1"/>
            <line clip-path="url(#clipPath5)" fill="none" x1="151"
                x2="167" y1="338" y2="314" stroke-width="1.1"/>
            <line clip-path="url(#clipPath5)" fill="none" x1="183"
                x2="167" y1="338" y2="314" stroke-width="1.1"/>
            <text font-size="13" x="154" y="352"
                clip-path="url(#clipPath6)" font-family="'Dialog'"
                stroke="none" stroke-width="1.1" xml:space="preserve">user</text>
            <ellipse clip-path="url(#clipPath7)" fill="white" rx="94"
                cx="381" ry="35" cy="81" stroke="none" stroke-width="1.1"/>
            <ellipse clip-path="url(#clipPath7)" fill="none" rx="94"
                cx="381" ry="35" cy="81" stroke-width="1.1"/>
            <text font-size="13" x="313" y="87"
                clip-path="url(#clipPath8)" font-family="'Dialog'"
                stroke="none" stroke-width="1.1" xml:space="preserve">view current traffic level</text>
            <ellipse clip-path="url(#clipPath9)" fill="white" rx="65.5"
                cx="496.5" ry="39.5" cy="409.5" stroke="none" stroke-width="1.1"/>
            <ellipse clip-path="url(#clipPath9)" fill="none" rx="65.5"
                cx="496.5" ry="39.5" cy="409.5" stroke-width="1.1"/>
            <text font-size="13" x="437" y="416"
                clip-path="url(#clipPath10)" font-family="'Dialog'"
                stroke="none" stroke-width="1.1" xml:space="preserve">change warn-level 1</text>
            <ellipse clip-path="url(#clipPath11)" fill="white" rx="68.5"
                cx="337.5" ry="39.5" cy="408.5" stroke="none" stroke-width="1.1"/>
            <ellipse clip-path="url(#clipPath11)" fill="none" rx="68.5"
                cx="337.5" ry="39.5" cy="408.5" stroke-width="1.1"/>
            <text font-size="13" x="278" y="415"
                clip-path="url(#clipPath12)" font-family="'Dialog'"
                stroke="none" stroke-width="1.1" xml:space="preserve">change warn-level 2</text>
            <ellipse clip-path="url(#clipPath13)" fill="white" rx="95.5"
                cx="390.5" ry="39.5" cy="292.5" stroke="none" stroke-width="1.1"/>
            <ellipse clip-path="url(#clipPath13)" fill="none" rx="95.5"
                cx="390.5" ry="39.5" cy="292.5" stroke-width="1.1"/>
            <text font-size="13" x="331" y="299"
                clip-path="url(#clipPath14)" font-family="'Dialog'"
                stroke="none" stroke-width="1.1" xml:space="preserve">change preferences</text>
            <ellipse clip-path="url(#clipPath15)" fill="white" rx="91.5"
                cx="388.5" ry="39.5" cy="194.5" stroke="none" stroke-width="1.1"/>
            <ellipse clip-path="url(#clipPath15)" fill="none" rx="91.5"
                cx="388.5" ry="39.5" cy="194.5" stroke-width="1.1"/>
            <text font-size="13" x="305" y="201"
                clip-path="url(#clipPath16)" font-family="'Dialog'"
                stroke="none" stroke-width="1.1" xml:space="preserve">view detailed usage of traffic</text>
            <rect x="0" y="0" clip-path="url(#clipPath1)" fill="none"
                width="799" height="1147" stroke-width="1.1"/>
        </g>
        <g stroke-width="1.1" stroke-dasharray="10,5" font-size="13" stroke-linecap="butt">
            <line clip-path="url(#clipPath17)" fill="none" x1="465"
                x2="424" y1="374" y2="329"/>
            <text xml:space="preserve" x="411" y="358"
                clip-path="url(#clipPath18)" stroke="none">&lt;&lt;extend&gt;&gt;</text>
            <line clip-path="url(#clipPath19)" fill="none" x1="434"
                x2="424" y1="333" y2="329" stroke-dasharray="none"/>
            <line clip-path="url(#clipPath19)" fill="none" x1="424"
                x2="427" y1="329" y2="340" stroke-dasharray="none"/>
            <line clip-path="url(#clipPath20)" fill="none" x1="354"
                x2="372" y1="370" y2="331"/>
            <text xml:space="preserve" x="329" y="357"
                clip-path="url(#clipPath21)" stroke="none">&lt;&lt;extend&gt;&gt;</text>
            <line clip-path="url(#clipPath22)" fill="none" x1="372"
                x2="372" y1="342" y2="331" stroke-dasharray="none"/>
            <line clip-path="url(#clipPath22)" fill="none" x1="372"
                x2="363" y1="331" y2="338" stroke-dasharray="none"/>
            <line clip-path="url(#clipPath23)" fill="none" x1="203"
                x2="350" y1="274" y2="114" stroke-dasharray="none"/>
            <line clip-path="url(#clipPath24)" fill="none" x1="207"
                x2="331" y1="292" y2="225" stroke-dasharray="none"/>
            <line clip-path="url(#clipPath25)" fill="none" x1="207"
                x2="297" y1="310" y2="301" stroke-dasharray="none"/>
        </g>
    </g>
</svg>
