<?xml version="1.0" encoding="UTF-8"?>
<svg stroke-dasharray="none" shape-rendering="auto"
    font-family="'Dialog'" width="801" text-rendering="auto"
    fill-opacity="1" color-interpolation="auto" color-rendering="auto"
    font-size="12" fill="black" stroke="black" image-rendering="auto"
    stroke-miterlimit="10" stroke-linecap="square"
    stroke-linejoin="miter" font-style="normal" height="1149"
    stroke-width="1" stroke-dashoffset="0" font-weight="normal" stroke-opacity="1">
    <!--Generated by the Batik Graphics2D SVG Generator-->
    <defs id="genericDefs"/>
    <g>
        <defs id="defs1">
            <clipPath clipPathUnits="userSpaceOnUse" id="clipPath1">
                <path d="M-1 -1 L801 -1 L801 1149 L-1 1149 L-1 -1 Z"/>
            </clipPath>
            <clipPath clipPathUnits="userSpaceOnUse" id="clipPath2">
                <path d="M5 6 L23 6 L23 21 L5 21 L5 6 Z"/>
            </clipPath>
            <clipPath clipPathUnits="userSpaceOnUse" id="clipPath3">
                <path d="M23 5 L72 5 L72 23 L23 23 L23 5 Z"/>
            </clipPath>
            <clipPath clipPathUnits="userSpaceOnUse" id="clipPath4">
                <path d="M120 69 L222 69 L222 600 L120 600 L120 69 Z"/>
            </clipPath>
            <clipPath clipPathUnits="userSpaceOnUse" id="clipPath5">
                <path d="M120 69 L222 69 L222 100 L120 100 L120 69 Z"/>
            </clipPath>
            <clipPath clipPathUnits="userSpaceOnUse" id="clipPath6">
                <path d="M130 75 L200 75 L200 93 L130 93 L130 75 Z"/>
            </clipPath>
            <clipPath clipPathUnits="userSpaceOnUse" id="clipPath7">
                <path d="M200 75 L211 75 L211 93 L200 93 L200 75 Z"/>
            </clipPath>
            <clipPath clipPathUnits="userSpaceOnUse" id="clipPath8">
                <path d="M130 75 L211 75 L211 94 L130 94 L130 75 Z"/>
            </clipPath>
            <clipPath clipPathUnits="userSpaceOnUse" id="clipPath9">
                <path d="M160 121 L182 121 L182 590 L160 590 L160 121 Z"/>
            </clipPath>
            <clipPath clipPathUnits="userSpaceOnUse" id="clipPath10">
                <path d="M173 165 L195 165 L195 590 L173 590 L173 165 Z"/>
            </clipPath>
            <clipPath clipPathUnits="userSpaceOnUse" id="clipPath11">
                <path d="M186 516 L208 516 L208 568 L186 568 L186 516 Z"/>
            </clipPath>
            <clipPath clipPathUnits="userSpaceOnUse" id="clipPath12">
                <path d="M304 69 L426 69 L426 600 L304 600 L304 69 Z"/>
            </clipPath>
            <clipPath clipPathUnits="userSpaceOnUse" id="clipPath13">
                <path d="M304 69 L426 69 L426 100 L304 100 L304 69 Z"/>
            </clipPath>
            <clipPath clipPathUnits="userSpaceOnUse" id="clipPath14">
                <path d="M312 75 L406 75 L406 93 L312 93 L312 75 Z"/>
            </clipPath>
            <clipPath clipPathUnits="userSpaceOnUse" id="clipPath15">
                <path d="M406 75 L417 75 L417 93 L406 93 L406 75 Z"/>
            </clipPath>
            <clipPath clipPathUnits="userSpaceOnUse" id="clipPath16">
                <path d="M312 75 L417 75 L417 94 L312 94 L312 75 Z"/>
            </clipPath>
            <clipPath clipPathUnits="userSpaceOnUse" id="clipPath17">
                <path d="M354 186 L376 186 L376 212 L354 212 L354 186 Z"/>
            </clipPath>
            <clipPath clipPathUnits="userSpaceOnUse" id="clipPath18">
                <path d="M354 226 L376 226 L376 252 L354 252 L354 226 Z"/>
            </clipPath>
            <clipPath clipPathUnits="userSpaceOnUse" id="clipPath19">
                <path d="M354 256 L376 256 L376 290 L354 290 L354 256 Z"/>
            </clipPath>
            <clipPath clipPathUnits="userSpaceOnUse" id="clipPath20">
                <path d="M354 295 L376 295 L376 337 L354 337 L354 295 Z"/>
            </clipPath>
            <clipPath clipPathUnits="userSpaceOnUse" id="clipPath21">
                <path d="M354 347 L376 347 L376 389 L354 389 L354 347 Z"/>
            </clipPath>
            <clipPath clipPathUnits="userSpaceOnUse" id="clipPath22">
                <path d="M491 71 L746 71 L746 146 L491 146 L491 71 Z"/>
            </clipPath>
            <clipPath clipPathUnits="userSpaceOnUse" id="clipPath23">
                <path d="M494 74 L720 74 L720 115 L494 115 L494 74 Z"/>
            </clipPath>
            <clipPath clipPathUnits="userSpaceOnUse" id="clipPath24">
                <path d="M167 119 L258 119 L258 196 L167 196 L167 119 Z"/>
            </clipPath>
            <clipPath clipPathUnits="userSpaceOnUse" id="clipPath25">
                <path d="M219 135 L245 135 L245 153 L219 153 L219 135 Z"/>
            </clipPath>
            <clipPath clipPathUnits="userSpaceOnUse" id="clipPath26">
                <path d="M193 170 L206 170 L206 183 L193 183 L193 170 Z"/>
            </clipPath>
            <clipPath clipPathUnits="userSpaceOnUse" id="clipPath27">
                <path d="M9 99 L176 99 L176 152 L9 152 L9 99 Z"/>
            </clipPath>
            <clipPath clipPathUnits="userSpaceOnUse" id="clipPath28">
                <path d="M60 112 L129 112 L129 130 L60 130 L60 112 Z"/>
            </clipPath>
            <clipPath clipPathUnits="userSpaceOnUse" id="clipPath29">
                <path d="M22 125 L35 125 L35 138 L22 138 L22 125 Z"/>
            </clipPath>
            <clipPath clipPathUnits="userSpaceOnUse" id="clipPath30">
                <path d="M150 126 L163 126 L163 139 L150 139 L150 126 Z"/>
            </clipPath>
            <clipPath clipPathUnits="userSpaceOnUse" id="clipPath31">
                <path d="M180 472 L313 472 L313 545 L180 545 L180 472 Z"/>
            </clipPath>
            <clipPath clipPathUnits="userSpaceOnUse" id="clipPath32">
                <path d="M234 497 L300 497 L300 515 L234 515 L234 497 Z"/>
            </clipPath>
            <clipPath clipPathUnits="userSpaceOnUse" id="clipPath33">
                <path d="M193 519 L206 519 L206 532 L193 532 L193 519 Z"/>
            </clipPath>
            <clipPath clipPathUnits="userSpaceOnUse" id="clipPath34">
                <path d="M177 164 L370 164 L370 217 L177 217 L177 164 Z"/>
            </clipPath>
            <clipPath clipPathUnits="userSpaceOnUse" id="clipPath35">
                <path d="M230 177 L320 177 L320 195 L230 195 L230 177 Z"/>
            </clipPath>
            <clipPath clipPathUnits="userSpaceOnUse" id="clipPath36">
                <path d="M190 190 L203 190 L203 203 L190 203 L190 190 Z"/>
            </clipPath>
            <clipPath clipPathUnits="userSpaceOnUse" id="clipPath37">
                <path d="M344 191 L357 191 L357 204 L344 204 L344 191 Z"/>
            </clipPath>
            <clipPath clipPathUnits="userSpaceOnUse" id="clipPath38">
                <path d="M180 204 L370 204 L370 257 L180 257 L180 204 Z"/>
            </clipPath>
            <clipPath clipPathUnits="userSpaceOnUse" id="clipPath39">
                <path d="M231 217 L324 217 L324 235 L231 235 L231 217 Z"/>
            </clipPath>
            <clipPath clipPathUnits="userSpaceOnUse" id="clipPath40">
                <path d="M193 230 L206 230 L206 243 L193 243 L193 230 Z"/>
            </clipPath>
            <clipPath clipPathUnits="userSpaceOnUse" id="clipPath41">
                <path d="M344 231 L357 231 L357 244 L344 244 L344 231 Z"/>
            </clipPath>
            <clipPath clipPathUnits="userSpaceOnUse" id="clipPath42">
                <path d="M181 234 L370 234 L370 287 L181 287 L181 234 Z"/>
            </clipPath>
            <clipPath clipPathUnits="userSpaceOnUse" id="clipPath43">
                <path d="M216 247 L338 247 L338 265 L216 265 L216 247 Z"/>
            </clipPath>
            <clipPath clipPathUnits="userSpaceOnUse" id="clipPath44">
                <path d="M194 260 L207 260 L207 273 L194 273 L194 260 Z"/>
            </clipPath>
            <clipPath clipPathUnits="userSpaceOnUse" id="clipPath45">
                <path d="M344 261 L357 261 L357 274 L344 274 L344 261 Z"/>
            </clipPath>
            <clipPath clipPathUnits="userSpaceOnUse" id="clipPath46">
                <path d="M180 273 L370 273 L370 326 L180 326 L180 273 Z"/>
            </clipPath>
            <clipPath clipPathUnits="userSpaceOnUse" id="clipPath47">
                <path d="M235 286 L320 286 L320 304 L235 304 L235 286 Z"/>
            </clipPath>
            <clipPath clipPathUnits="userSpaceOnUse" id="clipPath48">
                <path d="M193 299 L206 299 L206 312 L193 312 L193 299 Z"/>
            </clipPath>
            <clipPath clipPathUnits="userSpaceOnUse" id="clipPath49">
                <path d="M344 300 L357 300 L357 313 L344 313 L344 300 Z"/>
            </clipPath>
            <clipPath clipPathUnits="userSpaceOnUse" id="clipPath50">
                <path d="M180 325 L370 325 L370 378 L180 378 L180 325 Z"/>
            </clipPath>
            <clipPath clipPathUnits="userSpaceOnUse" id="clipPath51">
                <path d="M235 338 L320 338 L320 356 L235 356 L235 338 Z"/>
            </clipPath>
            <clipPath clipPathUnits="userSpaceOnUse" id="clipPath52">
                <path d="M193 351 L206 351 L206 364 L193 364 L193 351 Z"/>
            </clipPath>
            <clipPath clipPathUnits="userSpaceOnUse" id="clipPath53">
                <path d="M344 352 L357 352 L357 365 L344 365 L344 352 Z"/>
            </clipPath>
        </defs>
        <g font-size="11" fill="white" font-family="'Tahoma'"
            stroke-linejoin="round" stroke="white" stroke-width="0" stroke-miterlimit="0">
            <rect x="0" y="0" clip-path="url(#clipPath1)" width="800"
                height="1148" stroke="none"/>
        </g>
        <g stroke-width="0.1" font-size="11" font-family="'Tahoma'" stroke-linecap="butt">
            <line clip-path="url(#clipPath1)" fill="none" x1="1" x2="76"
                y1="30" y2="30"/>
            <line clip-path="url(#clipPath1)" fill="none" x1="76"
                x2="83" y1="30" y2="16"/>
            <line clip-path="url(#clipPath1)" fill="none" x1="83"
                x2="83" y1="16" y2="1"/>
            <text x="6" y="18" clip-path="url(#clipPath2)" stroke="none"
                font-weight="bold" xml:space="preserve">sd </text>
            <text font-size="13" x="24" y="20"
                clip-path="url(#clipPath3)" font-family="'Dialog'"
                stroke="none" xml:space="preserve">initialize</text>
            <line clip-path="url(#clipPath4)" fill="none" x1="171"
                x2="171" y1="99" y2="599" stroke-dasharray="10,2"/>
            <rect x="121" y="70" clip-path="url(#clipPath5)"
                fill="rgb(200,230,255)" width="100"
                stroke-dasharray="10,2" height="29" stroke="none"/>
            <text font-size="13" x="131" y="90"
                clip-path="url(#clipPath6)" font-family="'Dialog'"
                stroke-dasharray="10,2" stroke="none" xml:space="preserve">trafficStatus</text>
            <text font-size="13" x="201" y="90"
                clip-path="url(#clipPath7)" font-family="'Dialog'"
                stroke-dasharray="10,2" stroke="none" xml:space="preserve"> : </text>
            <line clip-path="url(#clipPath8)" fill="none" x1="131"
                x2="210" y1="92" y2="92" stroke-width="1.1"/>
            <rect x="121" y="70" clip-path="url(#clipPath5)" fill="none"
                width="99" height="28" stroke-width="1.1"/>
            <rect x="161" y="122" clip-path="url(#clipPath9)"
                fill="rgb(200,255,200)" width="20" height="467"
                stroke="none" stroke-width="1.1"/>
            <rect x="161" y="122" clip-path="url(#clipPath9)"
                fill="none" width="19" height="466" stroke-width="1.1"/>
            <rect x="174" y="166" clip-path="url(#clipPath10)"
                fill="rgb(200,255,200)" width="20" height="423"
                stroke="none" stroke-width="1.1"/>
            <rect x="174" y="166" clip-path="url(#clipPath10)"
                fill="none" width="19" height="422" stroke-width="1.1"/>
            <rect x="187" y="517" clip-path="url(#clipPath11)"
                fill="rgb(200,255,200)" width="20" height="50"
                stroke="none" stroke-width="1.1"/>
            <rect x="187" y="517" clip-path="url(#clipPath11)"
                fill="none" width="19" height="49" stroke-width="1.1"/>
            <line clip-path="url(#clipPath12)" fill="none" x1="365"
                x2="365" y1="99" y2="599" stroke-dasharray="10,2"/>
            <rect x="305" y="70" clip-path="url(#clipPath13)"
                fill="rgb(200,230,255)" width="120"
                stroke-dasharray="10,2" height="29" stroke="none"/>
            <text font-size="13" x="313" y="90"
                clip-path="url(#clipPath14)" font-family="'Dialog'"
                stroke-dasharray="10,2" stroke="none" xml:space="preserve">persistencyMgr</text>
            <text font-size="13" x="407" y="90"
                clip-path="url(#clipPath15)" font-family="'Dialog'"
                stroke-dasharray="10,2" stroke="none" xml:space="preserve"> : </text>
            <line clip-path="url(#clipPath16)" fill="none" x1="313"
                x2="416" y1="92" y2="92" stroke-width="1.1"/>
            <rect x="305" y="70" clip-path="url(#clipPath13)"
                fill="none" width="119" height="28" stroke-width="1.1"/>
            <rect x="355" y="187" clip-path="url(#clipPath17)"
                fill="rgb(200,255,200)" width="20" height="24"
                stroke="none" stroke-width="1.1"/>
            <rect x="355" y="187" clip-path="url(#clipPath17)"
                fill="none" width="19" height="23" stroke-width="1.1"/>
            <rect x="355" y="227" clip-path="url(#clipPath18)"
                fill="rgb(200,255,200)" width="20" height="24"
                stroke="none" stroke-width="1.1"/>
            <rect x="355" y="227" clip-path="url(#clipPath18)"
                fill="none" width="19" height="23" stroke-width="1.1"/>
            <rect x="355" y="257" clip-path="url(#clipPath19)"
                fill="rgb(200,255,200)" width="20" height="32"
                stroke="none" stroke-width="1.1"/>
            <rect x="355" y="257" clip-path="url(#clipPath19)"
                fill="none" width="19" height="31" stroke-width="1.1"/>
            <rect x="355" y="296" clip-path="url(#clipPath20)"
                fill="rgb(200,255,200)" width="20" height="40"
                stroke="none" stroke-width="1.1"/>
            <rect x="355" y="296" clip-path="url(#clipPath20)"
                fill="none" width="19" height="39" stroke-width="1.1"/>
            <rect x="355" y="348" clip-path="url(#clipPath21)"
                fill="rgb(200,255,200)" width="20" height="40"
                stroke="none" stroke-width="1.1"/>
            <rect x="355" y="348" clip-path="url(#clipPath21)"
                fill="none" width="19" height="39" stroke-width="1.1"/>
            <polygon fill="rgb(255,255,203)" stroke-width="1.1"
                clip-path="url(#clipPath22)"
                points=" 492 72 735 72 744 82 744 144 492 144" stroke="none"/>
            <polygon fill="none" clip-path="url(#clipPath22)"
                points=" 734 72 734 82 744 82 734 72 492 72 492 144 744 144 744 82" stroke="rgb(220,150,0)"/>
            <text x="495" y="86" clip-path="url(#clipPath23)"
                fill="rgb(220,150,0)" stroke="none" xml:space="preserve">Precondition:</text>
            <text x="495" y="99" clip-path="url(#clipPath23)"
                fill="rgb(220,150,0)" stroke="none" xml:space="preserve">trafficViewURL - the URL with the user-friendly</text>
            <text x="495" y="112" clip-path="url(#clipPath23)"
                fill="rgb(220,150,0)" stroke="none" xml:space="preserve">traffic-level view is already set</text>
            <rect x="0" y="0" clip-path="url(#clipPath1)" fill="none"
                width="799" height="1147" stroke-width="1.1"/>
            <line clip-path="url(#clipPath24)" fill="none" x1="181"
                x2="211" y1="133" y2="133"/>
            <line clip-path="url(#clipPath24)" fill="none" x1="211"
                x2="211" y1="133" y2="176"/>
            <line clip-path="url(#clipPath24)" fill="none" x1="211"
                x2="194" y1="176" y2="176"/>
            <text font-size="13" x="220" y="150"
                clip-path="url(#clipPath25)" font-family="'Dialog'"
                stroke="none" xml:space="preserve">init()</text>
            <polygon clip-path="url(#clipPath26)"
                points=" 194 176 204 171 204 181" stroke="none"/>
            <polygon fill="none" stroke-width="1.1"
                clip-path="url(#clipPath26)" points=" 194 176 204 171 204 181"/>
            <line clip-path="url(#clipPath27)" fill="none" x1="28"
                x2="161" y1="131" y2="132"/>
            <text font-size="13" x="61" y="127"
                clip-path="url(#clipPath28)" font-family="'Dialog'"
                stroke="none" xml:space="preserve">1: onLoad()</text>
            <circle r="4.5" clip-path="url(#clipPath29)" cx="27.5"
                cy="130.5" stroke="none"/>
            <circle fill="none" r="5" clip-path="url(#clipPath29)"
                cx="28" cy="131"/>
            <polygon clip-path="url(#clipPath30)"
                points=" 161 132 151 137 151 127" stroke="none"/>
            <polygon fill="none" stroke-width="1.1"
                clip-path="url(#clipPath30)" points=" 161 132 151 137 151 127"/>
            <line clip-path="url(#clipPath31)" fill="none" x1="194"
                x2="224" y1="486" y2="486"/>
            <line clip-path="url(#clipPath31)" fill="none" x1="224"
                x2="224" y1="486" y2="525"/>
            <line clip-path="url(#clipPath31)" fill="none" x1="224"
                x2="194" y1="525" y2="525"/>
            <text font-size="13" x="235" y="512"
                clip-path="url(#clipPath32)" font-family="'Dialog'"
                stroke="none" xml:space="preserve">getTraffic()</text>
            <polygon clip-path="url(#clipPath33)"
                points=" 194 525 204 520 204 530" stroke="none"/>
            <polygon fill="none" stroke-width="1.1"
                clip-path="url(#clipPath33)" points=" 194 525 204 520 204 530"/>
            <line clip-path="url(#clipPath34)" fill="none" x1="196"
                x2="355" y1="196" y2="197"/>
            <text font-size="13" x="231" y="192"
                clip-path="url(#clipPath35)" font-family="'Dialog'"
                stroke="none" xml:space="preserve">addObserver()</text>
            <circle r="4.5" clip-path="url(#clipPath36)" cx="195.5"
                cy="195.5" stroke="none"/>
            <circle fill="none" r="5" clip-path="url(#clipPath36)"
                cx="196" cy="196"/>
            <polygon clip-path="url(#clipPath37)"
                points=" 355 197 345 202 345 192" stroke="none"/>
            <polygon fill="none" stroke-width="1.1"
                clip-path="url(#clipPath37)" points=" 355 197 345 202 345 192"/>
            <line clip-path="url(#clipPath38)" fill="none" x1="199"
                x2="355" y1="236" y2="237"/>
            <text font-size="13" x="232" y="232"
                clip-path="url(#clipPath39)" font-family="'Dialog'"
                stroke="none" xml:space="preserve">getTrafficURL()</text>
            <circle r="4.5" clip-path="url(#clipPath40)" cx="198.5"
                cy="235.5" stroke="none"/>
            <circle fill="none" r="5" clip-path="url(#clipPath40)"
                cx="199" cy="236"/>
            <polygon clip-path="url(#clipPath41)"
                points=" 355 237 345 242 345 232" stroke="none"/>
            <polygon fill="none" stroke-width="1.1"
                clip-path="url(#clipPath41)" points=" 355 237 345 242 345 232"/>
            <line clip-path="url(#clipPath42)" fill="none" x1="200"
                x2="355" y1="266" y2="267"/>
            <text font-size="13" x="217" y="262"
                clip-path="url(#clipPath43)" font-family="'Dialog'"
                stroke="none" xml:space="preserve">getTrafficViewURL()</text>
            <circle r="4.5" clip-path="url(#clipPath44)" cx="199.5"
                cy="265.5" stroke="none"/>
            <circle fill="none" r="5" clip-path="url(#clipPath44)"
                cx="200" cy="266"/>
            <polygon clip-path="url(#clipPath45)"
                points=" 355 267 345 272 345 262" stroke="none"/>
            <polygon fill="none" stroke-width="1.1"
                clip-path="url(#clipPath45)" points=" 355 267 345 272 345 262"/>
            <line clip-path="url(#clipPath46)" fill="none" x1="199"
                x2="355" y1="305" y2="306"/>
            <text font-size="13" x="236" y="301"
                clip-path="url(#clipPath47)" font-family="'Dialog'"
                stroke="none" xml:space="preserve">getWarnLvl1()</text>
            <circle r="4.5" clip-path="url(#clipPath48)" cx="198.5"
                cy="304.5" stroke="none"/>
            <circle fill="none" r="5" clip-path="url(#clipPath48)"
                cx="199" cy="305"/>
            <polygon clip-path="url(#clipPath49)"
                points=" 355 306 345 311 345 301" stroke="none"/>
            <polygon fill="none" stroke-width="1.1"
                clip-path="url(#clipPath49)" points=" 355 306 345 311 345 301"/>
            <line clip-path="url(#clipPath50)" fill="none" x1="199"
                x2="355" y1="357" y2="358"/>
            <text font-size="13" x="236" y="353"
                clip-path="url(#clipPath51)" font-family="'Dialog'"
                stroke="none" xml:space="preserve">getWarnLvl2()</text>
            <circle r="4.5" clip-path="url(#clipPath52)" cx="198.5"
                cy="356.5" stroke="none"/>
            <circle fill="none" r="5" clip-path="url(#clipPath52)"
                cx="199" cy="357"/>
            <polygon clip-path="url(#clipPath53)"
                points=" 355 358 345 363 345 353" stroke="none"/>
            <polygon fill="none" stroke-width="1.1"
                clip-path="url(#clipPath53)" points=" 355 358 345 363 345 353"/>
        </g>
    </g>
</svg>
